<?xml version="1.0" standalone="no"?>
<!DOCTYPE svg PUBLIC "-//W3C//DTD SVG 1.1//EN" "http://www.w3.org/Graphics/SVG/1.1/DTD/svg11.dtd" >
<svg xmlns="http://www.w3.org/2000/svg">
<metadata></metadata>
<defs>
<font id="dastnevisregular" horiz-adv-x="0" >
<font-face units-per-em="2048" ascent="1638" descent="-410" />
<missing-glyph horiz-adv-x="413" />
<glyph unicode="&#x627;&#xfedf;&#xfee0;&#xfeea;" horiz-adv-x="2091" arabic-form="isolated" d="M141 -71q0 140 268 384q213 175 387 175t228 -130q15 -39 23 -163q6 -33 30 -33h18q100 0 128.5 130.5t37 246.5t15 251.5t41 169t71.5 4t29.5 -276t-49.5 -410.5q12 -92 52 -107q10 -4 18 -8h14q100 0 125.5 134.5t3 282.5t-57 250t-8.5 130.5t72 17t88.5 -133.5 t55.5 -331t-45.5 -354.5t-233.5 -157.5q-12 1 -22 3q-26 -6 -64 12t-78 73q-66 -79 -193 -88q-1 0 -26 -6h-57q-81 0 -106 60q-23 28 -37 226q-15 58 -58 58l-15 2h-13q-157 0 -379 -243q-77 -98 -90 -145h3l35 5h7q81 -12 81 -78l2 -3v-2q0 -95 -150 -95q-119 0 -148 102 l-3 26v22zM1123 1205q0 54 52 91q9 7 21 7q12 1 12 -9t-9 -22q-69 -94 33 -94q75 0 80 94q2 44 19 44q6 0 25.5 -58t52.5 -58q68 0 68 39q0 12 -4 25q-16 54 7 58t36 -22t13 -63q0 -39 -30 -77t-79 -38t-93 32q-60 -64 -106 -64t-72 30.5t-26 84.5zM1244 1528l55 52 q20 -34 20 -116t-26 -82q-5 6 -14 58t-35 88zM1835 40q34 721 34 858q0 59 71 78h9q59 0 78 -64l1 -14q0 -77 -36 -872q-27 -59 -76 -59h-1q-80 9 -80 73z" />
<glyph unicode="&#xfedf;&#xfe8e;" horiz-adv-x="1145" arabic-form="isolated" d="M232 980v4q0 47 67 76l15 2q54 0 290 -334l16 -17q1 5 65 72q269 267 415 382q156 132 219 170q18 6 33 6q60 0 80 -72v-10q0 -47 -50 -77q-188 -138 -372 -300t-291 -282v-2q73 -96 151 -298.5t-39 -390.5q-69 -79 -113 -98q-119 -81 -224 -81h-7q-165 0 -211 118 q-32 67 -32 145q0 208 276 590q-288 357 -288 397zM398 -4q0 -77 55 -109l49 -7q83 0 170 83q46 53 58 114t12 82q0 144 -125 319h-2q-198 -293 -217 -464v-18z" />
<glyph unicode="&#xfee0;&#xfe8e;" horiz-adv-x="774" arabic-form="final" d="M-225 -295q0 40 50 76q94 92 121 139q132 162 182 376t66 340q27 73 88 73q72 0 81 -83q-29 -231 -95 -456l-86 -224v-5l23 -3q117 0 254 288q82 194 97.5 334.5t19.5 266.5t83 126h16q48 0 78 -58q7 -16 7 -33v-16q0 -92 -65 -489l-2 -27q10 -123 85 -160 q87 -20 76 -104t-76 -69q-144 22 -195 148q-74 -127 -159 -230q-117 -139 -234 -139h-18q-68 0 -116 48q-124 -208 -198 -208q-59 0 -81 65l-2 16v8z" />
<glyph unicode="&#xfedb;&#xfee0;&#xfe8e;" horiz-adv-x="1797" d="M-186 -392q0 40 50 76q161 155 188 202q133 162 180 366q13 82 29 130q27 73 88 73q72 0 81 -83q-25 -142 -56 -236l-86 -224v-5l23 -3q117 0 254 288q78 173 78 209t43 197q61 172 140 172h16q48 0 78 -58q7 -16 7 -33v-16q0 -92 -126 -340l-2 -27q0 -86 57 -109l14 -3 v3q-21 62 -21 83v6q0 183 239 337q106 77 230 136t199 59h10q109 0 147 -126l5 -44q0 -170 -289 -401q-290 -203 -506 -203q-129 0 -195 77q-74 -127 -159 -230q-117 -139 -234 -139h-18q-68 0 -116 48q-63 -99 -186 -229q-40 -42 -79 -42q-59 0 -81 65l-2 16v8zM1016 270 q0 -34 8 -68q53 8 156 68t219 175q112 122 112 191q-4 19 -41 20q-126 0 -369 -205q-53 -37 -82 -145l-3 -30v-6zM1263 955v1q0 53 63 86q310 225 1045 849q35 28 79 28t59 -48v-18q0 -44 -69 -94l-695 -581q-322 -289 -374 -289q-16 -7 -40 -7q-48 0 -64 50z" />
<glyph unicode="&#xfedb;&#xfede;" horiz-adv-x="3069" d="M27 -4q0 175 193 367q188 165 379 223t331 58t164 -96l3 -28q-14 -104 -96 -104q-54 0 -66 56h-5q-150 0 -378 -86q-380 -191 -380 -426q0 -174 263 -261q109 -33 266 -33h3q837 0 1166 646q87 145 87 670v200l-3 23q0 56 66 81l23 2q62 0 83 -73v-5l3 -206 q0 -421 -53 -632q-8 -79 2 -134q13 -37 37 -60v2q-21 63 -21 83v7q0 183 240 337q106 77 225 136q130 60 205 60h10q109 0 147 -126l5 -45q0 -170 -289 -402q-252 -176 -422.5 -197t-243.5 116q-64 -94 -197 -234q-406 -396 -961 -396h-68q-347 0 -563 160 q-155 131 -155 286v31zM2261 263q0 -33 8 -68q53 9 157 69t219 175q113 122 113 192q-5 18 -42 20q-126 0 -369 -206q-54 -37 -83 -145l-3 -30v-7zM2509 950v2q0 52 63 86q311 225 1048 850q36 29 80 29t59 -48v-19q0 -44 -70 -94l-696 -583q-323 -289 -376 -289 q-16 -7 -40 -7q-48 0 -64 50z" />
<glyph unicode="&#xfedb;&#xfee0;" horiz-adv-x="1259" d="M-76 70v23q0 69 85 69q100 0 128.5 130.5t37 246.5t15 251.5t41 169t71.5 4t29.5 -275.5t-49.5 -411q10 -89 41 -110v1q-21 62 -21 83v7q0 183 240 337q106 77 225 136q130 60 205 60h10q109 0 147 -126l5 -45q0 -170 -289 -402q-292 -204 -446 -211.5t-197 81.5 q-66 -79 -193 -88q-85 8 -85 70zM469 251q0 -33 8 -68q53 9 157 69t219 175q112 122 112 192q-4 18 -41 19q-126 0 -369 -205q-54 -37 -83 -145l-3 -30v-7zM717 938v2q0 52 63 86q311 225 1048 850q36 28 80 28t59 -48v-18q0 -44 -70 -94l-697 -583q-323 -289 -375 -289 q-16 -7 -40 -7q-49 0 -65 50z" />
<glyph unicode="&#xfb94;&#xfee0;&#xfe8e;" horiz-adv-x="1787" d="M-186 -392q0 40 50 76q161 155 188 202q133 162 180 366q13 82 29 130q27 73 88 73q72 0 81 -83q-25 -142 -56 -236l-86 -224v-5l23 -3q117 0 254 288q78 173 78 209t43 197q61 172 140 172h16q48 0 78 -58q7 -16 7 -33v-16q0 -92 -126 -340l-2 -27q0 -86 57 -109l14 -3 v3q-21 62 -21 83v6q0 183 239 337q106 77 230 136t199 59h10q109 0 147 -126l5 -44q0 -170 -289 -401q-290 -203 -506 -203q-129 0 -195 77q-74 -127 -159 -230q-117 -139 -234 -139h-18q-68 0 -116 48q-63 -99 -186 -229q-40 -42 -79 -42q-59 0 -81 65l-2 16v8zM1016 270 q0 -34 8 -68q53 8 156 68t219 175q112 122 112 191q-4 19 -41 20q-126 0 -369 -205q-53 -37 -82 -145l-3 -30v-6zM1294 1048v17q0 37 56 70q36 107 238 309t280 202h21q57 0 101 -91l3 -28v-11q0 -65 -195 -227q-93 -66 -147 -66h-7q-29 0 -77 35h-4q-97 -94 -105 -112h4 q115 0 441 127.5t605 383.5l42 14q56 0 77 -63v-21q0 -39 -101 -133q-586 -394 -1005 -448q-15 -7 -160 -28q-52 0 -67 70z" />
<glyph unicode="&#xfb94;&#xfe8e;" horiz-adv-x="1313" d="M96 312v11q0 249 367 637l31 12h27q51 0 69 -62v-15q0 -41 -115 -159q-224 -265 -224 -401v-23q12 -107 77 -130q-21 61 -21 81v7q0 183 239 338q107 76 226 135q130 60 205 60h10q109 0 147 -126l5 -45q0 -170 -290 -402q-291 -204 -425 -216t-192 21q-76 31 -128 192z M474 263q0 -33 8 -68q52 9 156 69t220 175q112 122 112 192q-4 18 -41 20q-126 0 -369 -206q-54 -37 -83 -145l-3 -30v-7zM735 1032v17q0 37 56 70q37 107 239 309t279 202h21q57 0 101 -91l3 -28v-11q0 -65 -195 -227q-93 -66 -147 -66h-7q-29 0 -77 35h-4 q-97 -94 -105 -112h4q115 0 441 127.5t605 383.5l42 14q56 0 77 -63v-21q0 -39 -101 -133q-586 -394 -1005 -448q-15 -7 -160 -28q-52 0 -67 70z" />
<glyph unicode="&#xfb94;&#xfede;" horiz-adv-x="3062" d="M27 -4q0 175 193 367q188 165 379 223t331 58t164 -96l3 -28q-14 -104 -96 -104q-54 0 -66 56h-5q-150 0 -378 -86q-380 -191 -380 -426q0 -174 263 -261q109 -33 266 -33h3q837 0 1166 646q87 145 87 670v200l-3 23q0 56 66 81l23 2q62 0 83 -73v-5l3 -206 q0 -421 -53 -632q-8 -79 2 -134q13 -37 37 -60v2q-21 63 -21 83v7q0 183 240 337q106 77 225 136q130 60 205 60h10q109 0 147 -126l5 -45q0 -170 -289 -402q-252 -176 -422.5 -197t-243.5 116q-64 -94 -197 -234q-406 -396 -961 -396h-68q-347 0 -563 160 q-155 131 -155 286v31zM2261 263q0 -33 8 -68q53 9 157 69t219 175q113 122 113 192q-5 18 -42 20q-126 0 -369 -206q-54 -37 -83 -145l-3 -30v-7zM2452 1045v17q0 37 56 70q36 106 238 308t280 203h21q57 0 101 -91l3 -28v-11q0 -65 -195 -227q-93 -66 -147 -66h-7 q-29 0 -77 35h-4q-97 -94 -105 -112h4q115 0 441 127.5t605 383.5l42 14q56 0 77 -63v-21q0 -39 -101 -133q-586 -394 -1005 -448q-15 -7 -160 -28q-52 0 -67 70z" />
<glyph unicode="&#xfb94;&#xfee0;" horiz-adv-x="1262" d="M-76 70v23q0 69 85 69q100 0 128.5 130.5t37 246.5t15 251.5t41 169t71.5 4t29.5 -275.5t-49.5 -411q10 -89 41 -110v1q-21 62 -21 83v7q0 183 240 337q106 77 225 136q130 60 205 60h10q109 0 147 -126l5 -45q0 -170 -289 -402q-292 -204 -446 -211.5t-197 81.5 q-66 -79 -193 -88q-85 8 -85 70zM469 251q0 -33 8 -68q53 9 157 69t219 175q112 122 112 192q-4 18 -41 19q-126 0 -369 -205q-54 -37 -83 -145l-3 -30v-7zM624 1013v17q0 37 56 70q36 106 238 308t280 203h21q57 0 101 -91l3 -28v-11q0 -65 -195 -227q-93 -66 -147 -66h-7 q-29 0 -77 35h-4q-97 -94 -105 -112h4q115 0 441 127.5t605 383.5l42 14q56 0 77 -63v-21q0 -39 -101 -133q-586 -394 -1005 -448q-15 -7 -160 -28q-52 0 -67 70z" />
<glyph unicode="&#xfedc;&#xfee0;&#xfe8e;" horiz-adv-x="1528" d="M-186 -392q0 40 50 76q161 155 188 202q133 162 180 366q13 82 29 130q27 73 88 73q72 0 81 -83q-25 -142 -56 -236l-86 -224v-5l23 -3q117 0 254 288q78 173 78 209t43 197q61 172 140 172h16q48 0 78 -58q7 -16 7 -33v-16q0 -92 -126 -340q-19 -106 29.5 -131.5 t110.5 -16.5q-51 36 -51.5 104t32 142.5t166.5 191.5q106 77 230 136t199 59h10q109 0 147 -126l5 -44q0 -170 -289 -401q-55 -39 -108 -70q64 -13 109 -12q46 1 138 2q49 -5 68 -40.5t1 -71t-51 -46.5t-200 9.5t-268 61.5q-104 -36 -195 -36q-129 0 -195 77 q-74 -127 -159 -230q-117 -139 -234 -139h-18q-68 0 -116 48q-63 -99 -186 -229q-40 -42 -79 -42q-59 0 -81 65l-2 16v8zM1033.5 344.5q-14.5 -69.5 73.5 -117.5q176 103 292 218q112 122 112 191q-4 19 -41 20q-126 0 -369 -205q-53 -37 -67.5 -106.5zM1263 955v1 q0 53 63 86q310 225 1045 849q35 28 79 28t59 -48v-18q0 -44 -69 -94l-695 -581q-322 -289 -374 -289q-16 -7 -40 -7q-48 0 -64 50z" />
<glyph unicode="&#xfedc;&#xfe8e;" horiz-adv-x="952" d="M95 312v11q0 249 367 637l31 12h27q51 0 69 -62v-15q0 -41 -115 -159q-224 -265 -224 -401v-23q-3 -120 114 -144q-50 55 -26.5 173t207.5 267q107 76 226 135q130 60 205 60h10q109 0 147 -126l5 -45q0 -170 -290 -402q-56 -39 -106 -71q34 -5 208 -3q49 -5 68 -40.5 t1 -71t-53.5 -46.5t-184.5 8t-234 47q-79 -34 -135 -39q-124 -12 -181 21q-76 31 -128 192zM493.5 330.5q-14.5 -69.5 73.5 -117.5q176 103 292 218q112 122 112 191q-4 19 -41 20q-126 0 -369 -205q-53 -37 -67.5 -106.5zM721 950v2q0 52 63 86q310 225 1047 851 q37 28 81 28t58 -48v-19q0 -44 -69 -94l-697 -582q-323 -290 -376 -290q-15 -7 -39 -7q-49 0 -65 50z" />
<glyph unicode="&#xfedc;&#xfede;" horiz-adv-x="2731" d="M27 -4q0 175 193 367q188 165 379 223t331 58t164 -96l3 -28q-14 -104 -96 -104q-54 0 -66 56h-5q-150 0 -378 -86q-380 -191 -380 -426q0 -174 263 -261q109 -33 266 -33h3q837 0 1166 646q87 145 87 670v200l-3 23q0 56 66 81l23 2q62 0 83 -73v-5l3 -206 q0 -421 -53 -632q-8 -79 2 -134q10 -64 87 -81v2q-57 60 -30 177t199 271q106 77 225 136q130 60 205 60h10q109 0 147 -126l5 -45q0 -170 -289 -402q-56 -39 -105 -70q31 -5 204 -3q49 -5 68 -40.5t1 -71t-51.5 -46.5t-185.5 8t-239 48q-35 -11 -61 -15q-224 -28 -297 109 q-64 -94 -197 -234q-406 -396 -961 -396h-68q-347 0 -563 160q-155 131 -155 286v31zM2278.5 338.5q-14.5 -69.5 73.5 -117.5q176 103 292 218q112 122 112 191q-4 19 -41 20q-126 0 -369 -205q-53 -37 -67.5 -106.5zM2509 950v2q0 52 63 86q311 225 1048 850q36 29 80 29 t59 -48v-19q0 -44 -70 -94l-696 -583q-323 -289 -376 -289q-16 -7 -40 -7q-48 0 -64 50z" />
<glyph unicode="&#xfedc;&#xfee0;" horiz-adv-x="957" d="M-76 70v23q0 69 85 69q100 0 128.5 130.5t37 246.5t15 251.5t41 169t71.5 4t29.5 -275.5t-49.5 -411q14 -124 110 -127v1q-71 68 -38 198.5t188 245.5q106 77 225 136q130 60 205 60h10q109 0 147 -126l5 -45q0 -170 -289 -402q-45 -32 -87 -59q29 -4 200 -2 q49 -5 68 -40.5t1 -71t-52 -47t-183 7.5t-230 46q-95 -42 -163 -46q-154 -8 -197 82q-66 -79 -193 -88q-85 8 -85 70zM491.5 325.5q-14.5 -69.5 73.5 -117.5q176 103 292 218q112 122 112 191q-4 19 -41 20q-126 0 -369 -205q-53 -37 -67.5 -106.5zM717 938v2q0 52 63 86 q311 225 1048 850q36 28 80 28t59 -48v-18q0 -44 -70 -94l-697 -583q-323 -289 -375 -289q-16 -7 -40 -7q-49 0 -65 50z" />
<glyph unicode="&#xfb95;&#xfee0;&#xfe8e;" horiz-adv-x="1528" d="M-186 -392q0 40 50 76q161 155 188 202q133 162 180 366q13 82 29 130q27 73 88 73q72 0 81 -83q-25 -142 -56 -236l-86 -224v-5l23 -3q117 0 254 288q78 173 78 209t43 197q61 172 140 172h16q48 0 78 -58q7 -16 7 -33v-16q0 -92 -126 -340q-19 -106 29.5 -131.5 t110.5 -16.5q-51 36 -51.5 104t32 142.5t166.5 191.5q106 77 230 136t199 59h10q109 0 147 -126l5 -44q0 -170 -289 -401q-55 -39 -108 -70q64 -13 109 -12q46 1 138 2q49 -5 68 -40.5t1 -71t-51 -46.5t-200 9.5t-268 61.5q-104 -36 -195 -36q-129 0 -195 77 q-74 -127 -159 -230q-117 -139 -234 -139h-18q-68 0 -116 48q-63 -99 -186 -229q-40 -42 -79 -42q-59 0 -81 65l-2 16v8zM1033.5 344.5q-14.5 -69.5 73.5 -117.5q176 103 292 218q112 122 112 191q-4 19 -41 20q-126 0 -369 -205q-53 -37 -67.5 -106.5zM1269 1080v17 q0 37 56 70q37 107 239 309t279 202h21q57 0 101 -91l3 -28v-11q0 -65 -195 -227q-93 -66 -147 -66h-7q-29 0 -77 35h-4q-97 -94 -105 -112h4q115 0 441 127.5t605 383.5l42 14q56 0 77 -63v-21q0 -39 -101 -133q-586 -394 -1005 -448q-15 -7 -160 -28q-52 0 -67 70z" />
<glyph unicode="&#xfb95;&#xfe8e;" horiz-adv-x="952" d="M95 312v11q0 249 367 637l31 12h27q51 0 69 -62v-15q0 -41 -115 -159q-224 -265 -224 -401v-23q-3 -120 114 -144q-50 55 -26.5 173t207.5 267q107 76 226 135q130 60 205 60h10q109 0 147 -126l5 -45q0 -170 -290 -402q-56 -39 -106 -71q34 -5 208 -3q49 -5 68 -40.5 t1 -71t-53.5 -46.5t-184.5 8t-234 47q-79 -34 -135 -39q-124 -12 -181 21q-76 31 -128 192zM493.5 330.5q-14.5 -69.5 73.5 -117.5q176 103 292 218q112 122 112 191q-4 19 -41 20q-126 0 -369 -205q-53 -37 -67.5 -106.5zM795 1202v17q0 37 56 70q37 107 239 309t279 202 h21q57 0 101 -91l3 -28v-11q0 -65 -195 -227q-93 -66 -147 -66h-7q-29 0 -77 35h-4q-97 -94 -105 -112h4q115 0 441 127.5t605 383.5l42 14q56 0 77 -63v-21q0 -39 -101 -133q-586 -394 -1005 -448q-15 -7 -160 -28q-52 0 -67 70z" />
<glyph unicode="&#xfb95;&#xfede;" horiz-adv-x="2731" d="M27 -4q0 175 193 367q188 165 379 223t331 58t164 -96l3 -28q-14 -104 -96 -104q-54 0 -66 56h-5q-150 0 -378 -86q-380 -191 -380 -426q0 -174 263 -261q109 -33 266 -33h3q837 0 1166 646q87 145 87 670v200l-3 23q0 56 66 81l23 2q62 0 83 -73v-5l3 -206 q0 -421 -53 -632q-8 -79 2 -134q10 -64 87 -81v2q-57 60 -30 177t199 271q106 77 225 136q130 60 205 60h10q109 0 147 -126l5 -45q0 -170 -289 -402q-56 -39 -105 -70q31 -5 204 -3q49 -5 68 -40.5t1 -71t-51.5 -46.5t-185.5 8t-239 48q-35 -11 -61 -15q-224 -28 -297 109 q-64 -94 -197 -234q-406 -396 -961 -396h-68q-347 0 -563 160q-155 131 -155 286v31zM2278.5 338.5q-14.5 -69.5 73.5 -117.5q176 103 292 218q112 122 112 191q-4 19 -41 20q-126 0 -369 -205q-53 -37 -67.5 -106.5zM2448 1048v17q0 37 56 70q36 107 238 309t280 202h21 q57 0 101 -91l3 -28v-11q0 -65 -195 -227q-93 -66 -147 -66h-7q-29 0 -77 35h-4q-97 -94 -105 -112h4q115 0 441 127.5t605 383.5l42 14q56 0 77 -63v-21q0 -39 -101 -133q-586 -394 -1005 -448q-15 -7 -160 -28q-52 0 -67 70z" />
<glyph unicode="&#xfb95;&#xfee0;" horiz-adv-x="957" d="M-76 70v23q0 69 85 69q100 0 128.5 130.5t37 246.5t15 251.5t41 169t71.5 4t29.5 -275.5t-49.5 -411q14 -124 110 -127v1q-71 68 -38 198.5t188 245.5q106 77 225 136q130 60 205 60h10q109 0 147 -126l5 -45q0 -170 -289 -402q-45 -32 -87 -59q29 -4 200 -2 q49 -5 68 -40.5t1 -71t-52 -47t-183 7.5t-230 46q-95 -42 -163 -46q-154 -8 -197 82q-66 -79 -193 -88q-85 8 -85 70zM491.5 325.5q-14.5 -69.5 73.5 -117.5q176 103 292 218q112 122 112 191q-4 19 -41 20q-126 0 -369 -205q-53 -37 -67.5 -106.5zM662 1048v17q0 37 56 70 q36 107 238 309t280 202h21q57 0 101 -91l3 -28v-11q0 -65 -195 -227q-93 -66 -147 -66h-7q-29 0 -77 35h-4q-97 -94 -105 -112h4q115 0 441 127.5t605 383.5l42 14q56 0 77 -63v-21q0 -39 -101 -133q-586 -394 -1005 -448q-15 -7 -160 -28q-52 0 -67 70z" />
<glyph unicode="&#x62f;&#x648;&#xfeb3;&#xfe98;&#xfe96;&#x20;&#x62f;&#x627;&#x631;&#x645;&#x20;&#x627;&#xfea3;&#xfeb4;&#xfe8e;&#x646;" horiz-adv-x="2775" d="M117 -160q0 15 19 31q0 2 75 76t137 149t148 230q11 13 29 13q18 -1 25 -13t7 -20v-1q-1 -11 -19 -41t-40 -65q-22 -36 -62 -82q-70 -91 -168 -200t-105 -109q-5 -3 -19 -3q-14 -1 -20 13t-7 19v3zM156 946q0 92 47.5 178t132 131.5t174.5 45.5t174.5 -45.5t132.5 -131.5 t48 -178t-46.5 -176t-131 -130.5t-176.5 -46.5t-176.5 46.5t-131.5 130.5t-47 176zM208 947q0 -79 40 -150.5t112 -111.5t150 -40t150.5 40t112.5 111.5t40 150.5t-40.5 151.5t-113 111.5t-148.5 39t-148.5 -39t-113.5 -111.5t-41 -151.5zM329 1020q0 19 13.5 32t31.5 13 t31.5 -13t13.5 -32t-13.5 -31.5t-31.5 -12.5t-31.5 12.5t-13.5 31.5zM347 833l35 19q44 -79 129 -79t128 79l35 -19q-55 -108 -162.5 -108t-164.5 108zM450 -104q3 25 33 43q113 96 152 159q-56 23 -50 75q0 55 80 141q35 32 71 28t48 -51q4 -58 -29 -130q14 0 26 -3h26v10 q0 16 71 98q65 68 88 86l-3 13q0 72 31 275q22 119 34 161q14 16 34 16t30 -27v-11q-43 -202 -56 -351l-2 -25h1q41 25 77 25t54 -49q16 -136 -61 -208q15 -15 59 -8q51 0 78 80.5t42 96.5t34 10q36 -18 10 -70q-17 -47 -27 -78t27 -41l8 2q51 0 78 80.5t42 96.5t34 10 q36 -18 10 -70q-17 -47 -27.5 -80.5t34.5 -39.5h4q8 2 20 4t31.5 26t60.5 84t88 60h2q27 0 45.5 -27t17.5 -67t-9 -64q4 -16 31 -18h1q23 0 35 1q-5 7 -5 13q1 48 45 90t78 54q10 22 27 22q61 0 186 -15q106 -18 106 -84q0 -57 -74 -101q-31 -22 -101 -32t-117 -10t-47 3 q-44 -9 -140 -9q-30 -4 -56 28q-27 -29 -77 -30q-53 4 -74 44q-40 -48 -73 -42q-3 -1 -7 -1q-71 0 -78 53q-34 -52 -99 -53t-73 53q-34 -52 -90 -54q-7 1 -12 3q-70 0 -101 43q-95 -49 -233 -45q-27 0 -59 -2t-44 2q-13 -23 -36 -55q-22 -32 -98 -102q-76 -69 -98 -75 q-38 6 -34 37v2zM601 1020q0 19 13 32t32 13t32 -13t13 -32t-13.5 -31.5t-31.5 -12.5t-31.5 12.5t-13.5 31.5zM661.5 193q-10.5 -26 10.5 -30q11 7 31 60l8 34q-39 -38 -49.5 -64zM887 168h2q67 -12 136.5 30.5t77.5 104.5t-24.5 49.5t-106.5 -83.5q-68 -74 -85 -101z M1214 600q0 26 32 28t54 -40v-8q0 -21 -38 -30h-9q-33 0 -39 50zM1319 -179q0 28 41 38t169 20q12 0 17 -12l-8 -29q-3 -15 -186 -40h-2q-31 0 -31 23zM1528 659q0 143 207 244q151 66 261 66q72 0 116 -65q23 -38 23 -80t-18 -75q-1 -14 2 -21h1q51 0 78 80.5t42 96.5 t33 10q36 -18 11 -70q-17 -47 -27.5 -79t29.5 -40q6 2 18 4t31.5 25.5t60.5 83.5t88 60h2q28 0 46 -27t16.5 -78.5t-28.5 -95.5t-87 -45q-54 4 -74 44q-38 -44 -69 -43h-1q-71 0 -79 53q-34 -52 -89 -54q-37 7 -52 42q-48 -39 -95 -39h-12q-46 0 -80 40t-35 93v3 q0 44 52 108v1q-114 -35 -207 -98q-98 -77 -98 -151q0 -110 100 -215q8 -9 8 -20v-7q0 -30 -35 -35q-19 0 -37 26q-72 88 -94 189q-8 43 -8 69zM1625 173q6 -14 30.5 -20.5t48 16t22 50.5t-19.5 36t-47 -31t-34 -51zM1895 166q0 -10 16 -10q50 0 112 61q24 27 24 34 q-11 10 -36 10q-65 0 -109 -71q-7 -14 -7 -24zM1915 784q0 -51 48 -69l15 -2q32 0 73 44q26 35 26 67t-42 66q-17 8 -24 8q-26 0 -75 -56q-21 -31 -21 -53v-5zM2075 171q48 6 80 20q49 28 49 49q0 9 -66 19l-27 3v-1q3 -5 3 -11q0 -30 -39 -79zM2169 1165q0 25 33 30 q32 0 54 -42v-8q0 -22 -38 -30h-9q-33 0 -40 50zM2399 738q5 -14 29.5 -20.5t48 16t22 50.5t-19.5 36t-47 -31t-33 -51z" />
<glyph unicode="&#xfb59;&#xfb59;" horiz-adv-x="843" d="M-346 -554q0 66 108 88q152 24 560 48q35 0 52 -28l-26 -68q-9 -34 -590 -92h-8q-96 0 -96 52zM-97 -786q0 58 76 68q73 0 124 -96v-20q0 -49 -88 -68h-20q-76 0 -92 116zM-75.5 85q5.5 74 80.5 86q118 0 180.5 186t97.5 223t78 24q83 -42 24 -162q-41 -109 -49.5 -138.5 t-6.5 -80t71 -59.5q9 1 17 0q12 5 27 7q118 0 180.5 186t97.5 223t78 24q83 -42 24 -162q-41 -109 -49.5 -138.5t-6.5 -80t71 -59.5q63 5 80 -73v-18q-16 -73 -83 -73q-165 0 -182 122q-44 -68 -91.5 -95t-115.5 -29q-13 2 -24 5q-12 -3 -26 -3q-165 -1 -182 122 q-44 -68 -91.5 -95t-115.5 -30q-89 14 -83.5 88zM215 -862q0 66 108 88q152 24 560 48q35 0 52 -28l-26 -68q-9 -34 -590 -92h-8q-96 0 -96 52zM464 -1094q0 58 76 68q73 0 124 -96v-20q0 -49 -88 -68h-20q-76 0 -92 116z" />
<glyph unicode="&#xfe98;&#xfe98;" horiz-adv-x="804" d="M-76.5 85q5.5 74 80.5 86q118 0 180.5 186t97.5 223t78 24q83 -42 24 -162q-40 -109 -49 -138.5t-7 -78.5t62 -60q10 4 23 6q118 0 180.5 186t97.5 223t78 24q83 -42 24 -162q-40 -109 -49 -138.5t-7 -80t71 -59.5q63 5 80 -73v-18q-16 -73 -83 -73q-165 -1 -182 122 q-78 -121 -177 -123q-39 -1 -43 0q-5 1 -7 1q-165 -1 -182 122q-44 -68 -91 -95t-116 -30q-89 14 -83.5 88zM154 993q0 65 79 88q109 24 407 48q26 0 38 -28l-19 -68q-6 -35 -429 -92h-6q-70 0 -70 52zM531 806q0 65 79 88q109 24 407 48q26 0 38 -28l-19 -68 q-6 -35 -429 -92h-6q-70 0 -70 52z" />
<glyph unicode="&#xfe9c;&#xfe9c;" horiz-adv-x="804" d="M-126 836q0 65 108 88q151 24 560 48q35 0 52 -28l-26 -68q-9 -35 -590 -92h-8q-96 0 -96 52zM-76.5 85q5.5 74 80.5 86q118 0 180.5 186t97.5 223t78 24q83 -42 24 -162q-40 -109 -49 -138.5t-7 -77.5t60 -60q10 3 21 5q118 0 180.5 186t97.5 223t78 24q83 -42 24 -162 q-40 -109 -49 -138.5t-7 -80t71 -59.5q63 5 80 -73v-18q-16 -73 -83 -73q-165 -1 -182 122q-78 -121 -177 -123q-39 -1 -42 0l-4 1q-165 -1 -182 122q-44 -68 -91 -95t-116 -30q-89 14 -83.5 88zM153 1222q0 58 76 68q73 0 124 -96v-20q0 -49 -88 -68h-20q-76 0 -92 116z M456 1259q0 65 108 88q151 24 560 48q35 0 52 -28l-26 -68q-9 -35 -590 -92h-8q-96 0 -96 52zM735 1645q0 58 76 68q73 0 124 -96v-20q0 -49 -88 -68h-20q-76 0 -92 116z" />
<glyph unicode="&#xfef4;&#xfef4;" horiz-adv-x="826" d="M-94 -362q0 65 79 88q109 24 407 48q26 0 38 -28l-19 -68q-6 -35 -429 -92h-6q-70 0 -70 52zM-80.5 85q5.5 74 80.5 86q118 0 180.5 186t97.5 223t78 24q83 -42 24 -162q-40 -109 -49 -138.5t-7 -80t71 -59.5l40 7q118 0 180.5 186t97.5 223t78 24q83 -42 24 -162 q-40 -109 -49 -138.5t-7 -80t71 -59.5q63 5 80 -73v-18q-16 -73 -83 -73q-165 -1 -182 122q-44 -68 -91 -95t-116 -30q-13 2 -24 5q-10 -2 -22 -2q-165 -1 -182 122q-44 -68 -91 -95t-116 -30q-89 14 -83.5 88zM345 -623q0 65 79 88q109 24 407 48q26 0 38 -28l-19 -68 q-6 -35 -429 -92h-6q-70 0 -70 52z" />
<glyph unicode="&#x6c0;" horiz-adv-x="996" arabic-form="isolated" />
<glyph unicode="&#x6a9;" horiz-adv-x="1802" arabic-form="isolated" d="M32 436q0 327 552 562l112 35h14q70 -13 70 -69v-11q0 -65 -119 -91q-475 -194 -475 -440q0 -200 419 -284q73 -14 154 -14q293 0 675 214q106 63 252 213q115 134 115 311l-7 102q22 62 63 62h21q62 0 70 -80l3 -56v-52q0 -397 -520 -675q-340 -154 -633 -154h-35 q-389 0 -626 192q-105 111 -105 235zM1810 1510v17q0 37 78 53.5t182 39.5t389.5 133t564.5 366l42 14q56 0 77 -63v-21q0 -39 -101 -133q-586 -394 -1005 -448q-15 -7 -160 -28q-52 0 -67 70z" />
<glyph unicode="&#x6cc;" horiz-adv-x="3200" arabic-form="isolated" d="M46 398v19q0 194 212 396q104 88 191 135q534 305 1142 305q301 0 370 -98q16 -25 16 -52v-10q0 -68 -94 -127l-23 -3h-8q-53 0 -73 64v19q0 8 15 29v3q-101 18 -214 18q-517 0 -998 -253q-121 -62 -246 -167q-158 -153 -158 -271v-12q0 -152 217 -287q92 -60 348 -126 q331 -80 707 -80t753 74q200 52 325 114q206 109 206 207q0 90 -251 260q-178 121 -178 219v3q0 122 281 180q304 84 449 84h36q79 0 96 -59l2 -19v-2q0 -65 -75 -79l-51 4q-183 0 -490 -100q-54 -28 -54 -41q6 -13 86 -66q306 -185 306 -365v-18q0 -218 -338 -356 q-94 -41 -312 -89q-351 -66 -697 -66h-46q-602 0 -1094 195q-358 161 -358 418zM1201 -528q0 65 108 88q151 24 560 48q35 0 52 -28l-26 -68q-9 -35 -590 -92h-8q-96 0 -96 52z" />
<glyph unicode="&#x67e;" horiz-adv-x="1806" arabic-form="final" d="M27 299q0 183 268 349q113 58 235 91q192 45 326 45q51 0 75 -68v-28q0 -58 -78 -75h-53q-311 0 -523 -175q-93 -92 -93 -149q0 -134 366 -162l124 -2h2q578 24 751 139.5t197 237.5t69 156q17 7 36 7q75 -4 83 -81q-31 -98 -70 -175q-30 -104 -14 -161q15 -56 83 -84 q49 -5 68 -40.5t8.5 -68.5t-43.5 -47.5t-98 9t-110 94.5q-28 44 -32 104q-52 -49 -112 -77q-210 -97 -390 -122t-438 -25q-501 0 -614 210q-23 60 -23 98zM402 -354q0 66 108 88q151 24 560 48q35 0 52 -28l-26 -68q-9 -34 -590 -92h-8q-96 0 -96 52zM651 -586q0 59 76 68 q72 0 124 -96v-20q0 -49 -88 -68h-20q-76 0 -92 116z" />
<glyph unicode="&#x67e;" horiz-adv-x="600" arabic-form="initial" d="M-101 -363q0 66 108 88q151 24 560 48q35 0 52 -28l-26 -68q-9 -34 -590 -92h-8q-96 0 -96 52zM-84 79.5q5 69.5 76 80.5q170 3 248 73t97.5 203t73.5 167q0 6 30 7q107 -21 69 -161q-39 -184 -102 -262.5t-172 -138t-241 -47.5q-84 9 -79 78.5zM146 -553q0 59 76 68 q73 0 124 -96v-20q0 -49 -88 -68h-20q-76 0 -92 116z" />
<glyph unicode="&#x67e;" horiz-adv-x="400" arabic-form="medial" d="M-346 -554q0 66 108 88q152 24 560 48q35 0 52 -28l-26 -68q-9 -34 -590 -92h-8q-96 0 -96 52zM-97 -786q0 58 76 68q73 0 124 -96v-20q0 -49 -88 -68h-20q-76 0 -92 116zM-75.5 85q5.5 74 80.5 86q118 0 180.5 186t97.5 223t78 24q83 -42 24 -162q-41 -109 -49.5 -138.5 t-6.5 -80t71 -59.5q63 5 80 -73v-18q-16 -73 -83 -73q-165 -1 -182 122q-44 -68 -91.5 -95t-115.5 -30q-89 14 -83.5 88z" />
<glyph unicode="&#x686;" horiz-adv-x="1284" arabic-form="final" d="M-204 -595q0 378 534 767q191 148 334 231q24 9 24 28q-24 57 -156 116l-34 5h-7q-85 -15 -219 -197q-95 -186 -120 -205h-10q-10 0 -12 51v31q0 148 41 192q33 74 197 226q64 53 116 53q102 0 337 -180q31 -12 61 -12t109 36q34 7 65 7q147 0 258 -103q14 -18 14 -29v-5 q0 -68 -84 -99l-31 -4q-47 0 -125 12q2 -10 4 -22q21 -130 195 -141q49 -5 68 -40.5t8.5 -68.5t-43.5 -47t-127.5 6.5t-184 97.5t-72.5 244q-10 2 -19 4h-12q-87 0 -443 -245q-117 -77 -298 -253q-238 -255 -238 -444v-29q0 -266 216 -385q146 -96 402 -93h5q237 9 536 83 q22 12 22 20l-9 16v20q8 33 29 33q97 -47 134 -115l2 -12q-3 -67 -265 -111t-423 -43h-19q-280 0 -505 109q-33 12 -144 120q-77 96 -94 187q-17 68 -17 152v36zM402 -295q0 66 108 88q151 24 560 48q35 0 52 -28l-26 -68q-9 -34 -590 -92h-8q-96 0 -96 52zM651 -527 q0 59 76 68q73 0 124 -96v-20q0 -49 -88 -68h-20q-76 0 -92 116z" />
<glyph unicode="&#x686;" horiz-adv-x="1000" arabic-form="initial" d="M-73 73v11q0 50 61 71q91 0 199 50q197 75 371 183q-117 176 -186 176q-46 -1 -178 -190q-34 -43 -57 -43t-54 56l-4 25q0 76 119 192q113 123 177 123h2q89 0 204 -159q74 -95 90 -111q87 60 122 60h18q40 0 66 -53q6 -13 6 -29q0 -60 -74 -131q-49 -38 -95 -38l-36 9 q-178 -107 -303 -165q-254 -105 -299 -105q-24 -5 -65 -5h-7q-51 0 -73 51zM107 -399q0 66 108 88q151 24 560 48q35 0 52 -28l-26 -68q-9 -34 -590 -92h-8q-96 0 -96 52zM356 -631q0 59 76 68q73 0 124 -96v-20q0 -49 -88 -68h-20q-76 0 -92 116z" />
<glyph unicode="&#x686;" horiz-adv-x="848" arabic-form="medial" d="M-75 73v11q0 50 61 71q335 6 570 233q-117 176 -186 176q-46 -1 -178 -190q-34 -43 -57 -43t-54 56l-4 25q0 76 119 192q113 123 177 123h2q89 0 204 -159q74 -95 90 -111q87 60 122 60h18q40 0 66 -53q6 -13 6 -29q0 -60 -74 -131q-49 -38 -95 -38l-36 9l-14 -10 q16 -90 189 -102q49 -5 68 -40.5t8.5 -68.5t-43.5 -47t-114 -3.5t-161 110.5q-33 42 -49 78q-234 -159 -372 -175.5t-179 -16.5h-7q-51 0 -73 51zM72 -477q0 66 108 88q151 24 560 48q35 0 52 -28l-26 -68q-9 -34 -590 -92h-8q-96 0 -96 52zM321 -709q0 59 76 68 q73 0 124 -96v-20q0 -49 -88 -68h-20q-76 0 -92 116z" />
<glyph unicode="&#x698;" horiz-adv-x="517" arabic-form="final" d="M-397 -589q0 36 45 74q0 3 172 171q181 182 227 243q133 156 226 294q107 166 142.5 285.5t90.5 106.5q45 0 70 -45q7 -15 7 -32v-3q0 -45 -51.5 -158.5t-35.5 -147.5t57.5 -46.5t45.5 -74.5q0 -49 -50 -72q-14 -4 -25 -4h-10q-121 8 -138 104q-163 -244 -425 -524 q-107 -116 -167 -181t-73 -65q-12 -7 -31 -7q-47 0 -71 51q-6 14 -6 25v6zM249 1071q0 65 108 88q151 24 560 48q35 0 52 -28l-26 -68q-9 -35 -590 -92h-8q-96 0 -96 52zM528 1457q0 58 76 68q73 0 124 -96v-20q0 -49 -88 -68h-20q-76 0 -92 116z" />
<glyph unicode="&#x6af;" horiz-adv-x="2087" arabic-form="final" d="M181 436q0 327 552 562l112 35h14q70 -13 70 -69v-11q0 -65 -119 -91q-475 -194 -475 -440q0 -200 419 -284q73 -14 154 -14q293 0 675 214q106 63 252 213q115 134 115 311l-7 102q22 62 63 62h21q62 0 70 -80l3 -56v-52q0 -110 -40 -211q-35 -207 -41 -302 q-5 -94 19.5 -130t50.5 -33q49 -5 68 -39.5t1 -70t-43.5 -44t-59 -7t-74 22.5t-82 102.5t-9.5 254.5q-120 -117 -310 -218q-340 -154 -633 -154h-35q-389 0 -626 192q-105 111 -105 235zM1832 1397v17q0 37 56 70q36 106 238 308t280 203h21q57 0 101 -91l3 -28v-11 q0 -65 -195 -227q-93 -66 -147 -66h-7q-29 0 -77 35h-4q-97 -94 -105 -112h4q115 0 441 127.5t605 383.5l42 14q56 0 77 -63v-21q0 -39 -101 -133q-586 -394 -1005 -448q-15 -7 -160 -28q-52 0 -67 70z" />
<glyph unicode="&#x6af;" horiz-adv-x="763" arabic-form="initial" d="M-82 70v23q0 69 85 69q122 0 217.5 130.5t104 246.5t15 251.5t41 169t71.5 4t33 -161.5t-19 -315.5t-140.5 -329t-322.5 -157.5q-85 8 -85 70zM271 1306v17q0 37 56 70q37 107 239 309t279 202h21q57 0 101 -91l3 -28v-11q0 -65 -195 -227q-93 -66 -147 -66h-7 q-29 0 -77 35h-4q-97 -94 -105 -112h4q115 0 441 127.5t605 383.5l42 14q56 0 77 -63v-21q0 -39 -101 -133q-586 -394 -1005 -448q-15 -7 -160 -28q-52 0 -67 70z" />
<glyph unicode="&#x6af;" horiz-adv-x="405" arabic-form="medial" d="M-86 70v23q0 69 85 69q152 0 206.5 130.5t63 246.5t15 251.5t41 169t71.5 4t29.5 -278t-52.5 -386.5q2 -19 5 -41q10 -74 49.5 -88.5t53.5 -40.5t9 -62t-35 -56t-80 4t-96 98q-90 -103 -280 -113q-85 8 -85 70zM258 1323v17q0 37 56 70q36 106 238 308t280 203h21 q57 0 101 -91l3 -28v-11q0 -65 -195 -227q-93 -66 -147 -66h-7q-29 0 -77 35h-4q-97 -94 -105 -112h4q115 0 441 127.5t605 383.5l42 14q56 0 77 -63v-21q0 -39 -101 -133q-586 -394 -1005 -448q-15 -7 -160 -28q-52 0 -67 70z" />
<glyph unicode="&#x622;" horiz-adv-x="378" arabic-form="final" d="M101 298v11q0 249 367 637l31 12h27q51 0 69 -62v-15q0 -41 -115 -159q-224 -265 -224 -401v-23q15 -136 115 -136q85 0 85 -69v-23q0 -62 -85 -70q-193 0 -262 213z" />
<glyph unicode="&#x623;" horiz-adv-x="370" arabic-form="final" d="M101 298v11q0 249 367 637l31 12h27q51 0 69 -62v-15q0 -41 -115 -159q-224 -265 -224 -401v-23q15 -136 115 -136q85 0 85 -69v-23q0 -62 -85 -70q-193 0 -262 213zM309 1054q0 38 46 73l80 67q23 32 23 68t-62 103q-24 31 -24 69t25 52q25 12 43 12t52 -31 q32 -31 32 -35l1 -4q0 -18 -28 -22h-5q-7 -4 -7 -13v-5q0 -23 47 -94q19 -32 19 -73t-43 -73q-125 -125 -150 -125l-8 -1h-12q-25 0 -29 32z" />
<glyph unicode="&#x624;" horiz-adv-x="500" arabic-form="final" d="M-253 -448q5 57 76 100q263 225 352 369q-130 54 -116 173q-1 128 184 326q85 72 161 65q87 -8 114 -116q13 -126 -66 -302q83 -2 103.5 -40.5t10 -71.5t-48 -49.5t-154.5 -6.5q-32 -52 -85 -128q-53 -75 -228 -235t-225 -174l-15 1q-37 3 -59 52q-9 17 -4 37zM87 854 q0 38 46 73l80 67q23 32 23 68t-62 103q-24 31 -24 69t25 52q25 12 43 12t52 -31q32 -31 32 -35l1 -4q0 -18 -28 -22h-5q-7 -4 -7 -13v-5q0 -23 47 -94q19 -32 19 -73t-43 -73q-125 -125 -150 -125l-8 -1h-12q-25 0 -29 32zM235.5 240.5q-23.5 -60.5 24.5 -69.5 q26 18 71 139l19 80q-91 -89 -114.5 -149.5z" />
<glyph unicode="&#x625;" horiz-adv-x="370" arabic-form="final" d="M6 -463q0 38 46 73l80 67q23 31 23 67t-62 104q-24 32 -24 70t25 50q26 12 44 13q18 0 50 -31t33 -35l1 -4q0 -18 -28 -22h-5q-7 -4 -7 -13v-5q0 -23 47 -94q19 -32 19 -73t-43 -73q-125 -125 -150 -125l-8 -1h-12q-25 0 -29 32zM101 298v11q0 249 367 637l31 12h27 q51 0 69 -62v-15q0 -41 -115 -159q-224 -265 -224 -401v-23q15 -136 115 -136q85 0 85 -69v-23q0 -62 -85 -70q-193 0 -262 213z" />
<glyph unicode="&#x626;" horiz-adv-x="1808" arabic-form="final" d="M20 -167q0 188 297 455q215 173 363 230q302 142 453 142h31q73 0 85 -54l2 -12q0 -83 -168 -237l-21 -5h-10q-68 0 -81 83q5 20 38 62q-247 -42 -412 -152q-97 -53 -283 -223q-152 -166 -152 -294q0 -106 150 -201q134 -69 301 -69h48q231 0 529 92q135 50 232 112 q169 116 169 159q0 28 -152 104q-48 32 -48 73v3q0 72 83 80h3l123 -16l33 -3l140 3h7l34 2q55 0 76 -69v-14q0 -66 -81 -78h-31l-52 -3q26 -48 26 -87q0 -96 -204 -225q-131 -96 -346 -174q-302 -99 -601 -99q-463 0 -567 296q-14 52 -14 98v21zM1054 886q0 38 46 73l80 67 q23 32 23 68t-62 103q-24 31 -24 69t25 52q26 12 44 12t50 -31t33 -35l1 -4q0 -18 -28 -22h-5q-7 -4 -7 -13v-5q0 -23 47 -94q19 -32 19 -73t-43 -73q-125 -125 -150 -125l-8 -1h-12q-25 0 -29 32z" />
<glyph unicode="&#x626;" horiz-adv-x="600" arabic-form="initial" d="M-85 79.5q5 69.5 76 80.5q171 3 249 73t97.5 203t73.5 167q0 6 30 7q107 -21 69 -161q-39 -184 -102 -262.5t-172 -138t-242 -47.5q-84 9 -79 78.5zM161 1102q0 38 46 73l80 67q23 32 23 68t-62 103q-24 31 -24 69t25 52q25 12 43 12t52 -31q32 -31 32 -35l1 -4 q0 -18 -28 -22h-5q-7 -4 -7 -13v-5q0 -23 47 -94q19 -32 19 -73t-43 -73q-125 -125 -150 -125l-8 -1h-12q-25 0 -29 32z" />
<glyph unicode="&#x626;" horiz-adv-x="392" arabic-form="medial" d="M-84.5 85q5.5 74 80.5 86q118 0 180.5 186t97.5 223t78 24q83 -42 24 -162q-40 -109 -49 -138.5t-7 -80t71 -59.5q63 5 80 -73v-18q-16 -73 -83 -73q-165 -1 -182 122q-44 -68 -91 -95t-116 -30q-89 14 -83.5 88zM128 884q0 38 46 73l80 67q23 32 23 68t-62 103 q-24 31 -24 69t25 52q26 12 44 12t50 -31t33 -35l1 -4q0 -18 -28 -22h-5q-7 -4 -7 -13v-5q0 -23 47 -94q19 -32 19 -73t-43 -73q-125 -125 -150 -125l-8 -1h-12q-25 0 -29 32z" />
<glyph unicode="&#x627;" horiz-adv-x="387" arabic-form="final" d="M101 298v11q0 249 367 637l31 12h27q51 0 69 -62v-15q0 -41 -115 -159q-224 -265 -224 -401v-23q15 -136 115 -136q85 0 85 -69v-23q0 -62 -85 -70q-193 0 -262 213z" />
<glyph unicode="&#x628;" horiz-adv-x="1811" arabic-form="final" d="M27 299q0 183 268 349q113 58 235 91q192 45 326 45q51 0 75 -68v-28q0 -58 -78 -75h-53q-311 0 -523 -175q-93 -92 -93 -149q0 -134 366 -162l124 -2h2q578 24 751 139.5t197 237.5t69 156q17 7 36 7q75 -4 83 -81q-31 -98 -70 -175q-30 -104 -14 -161q15 -56 83 -84 q49 -5 68 -40.5t8.5 -68.5t-43.5 -47.5t-98 9t-110 94.5q-28 44 -32 104q-52 -49 -112 -77q-210 -97 -390 -122t-438 -25q-501 0 -614 210q-23 60 -23 98zM642 -494q0 59 76 68q73 0 124 -96v-20q0 -49 -88 -68h-20q-76 0 -92 116z" />
<glyph unicode="&#x628;" horiz-adv-x="580" arabic-form="initial" d="M-85 79.5q5 69.5 76 80.5q171 3 249 73t97.5 203t73.5 167q0 6 30 7q107 -21 69 -161q-39 -184 -102 -262.5t-172 -138t-242 -47.5q-84 9 -79 78.5zM52 -387q0 59 76 68q73 0 124 -96v-20q0 -49 -88 -68h-20q-76 0 -92 116z" />
<glyph unicode="&#x628;" horiz-adv-x="398" arabic-form="medial" d="M-76.5 85q5.5 74 80.5 86q118 0 180.5 186t97.5 223t78 24q83 -42 24 -162q-40 -109 -49 -138.5t-7 -80t71 -59.5q63 5 80 -73v-18q-16 -73 -83 -73q-165 -1 -182 122q-44 -68 -91 -95t-116 -30q-89 14 -83.5 88zM27 -414q0 59 76 68q73 0 124 -96v-20q0 -49 -88 -68h-20 q-76 0 -92 116z" />
<glyph unicode="&#x629;" horiz-adv-x="923" arabic-form="final" d="M1 -71q0 140 268 384q213 175 387 175t228 -130q15 -39 23 -163q6 -33 30 -33q65 -27 65 -73v-15q0 -62 -73 -80h-57q-81 0 -106 60q-23 28 -37 226q-15 58 -58 58l-15 2h-13q-157 0 -379 -243q-77 -98 -90 -145h3l35 5h7q81 -12 81 -78l2 -3v-2q0 -95 -150 -95 q-119 0 -148 102l-3 26v22zM36 723q0 65 108 88q151 24 560 48q35 0 52 -28l-26 -68q-9 -35 -590 -92h-8q-96 0 -96 52z" />
<glyph unicode="&#x62a;" horiz-adv-x="1802" arabic-form="final" d="M23 299q0 183 268 349q113 58 235 91q192 45 326 45q51 0 75 -68v-28q0 -58 -78 -75h-53q-311 0 -523 -175q-93 -92 -93 -149q0 -134 366 -162l124 -2h2q578 24 751 139.5t197 237.5t69 156q17 7 36 7q75 -4 83 -81q-31 -98 -70 -175q-30 -104 -14 -161q15 -56 83 -84 q49 -5 68 -40.5t8.5 -68.5t-43.5 -47.5t-98 9t-110 94.5q-28 44 -32 104q-52 -49 -112 -77q-210 -97 -390 -122t-438 -25q-501 0 -614 210q-23 60 -23 98zM828 1138q0 65 108 88q151 24 560 48q35 0 52 -28l-26 -68q-9 -35 -590 -92h-8q-96 0 -96 52z" />
<glyph unicode="&#x62a;" horiz-adv-x="600" arabic-form="initial" d="M-85 79.5q5 69.5 76 80.5q171 3 249 73t97.5 203t73.5 167q0 6 30 7q107 -21 69 -161q-39 -184 -102 -262.5t-172 -138t-242 -47.5q-84 9 -79 78.5zM262 1063q0 65 79 88q109 24 407 48q26 0 38 -28l-19 -68q-6 -35 -429 -92h-6q-70 0 -70 52z" />
<glyph unicode="&#x62a;" horiz-adv-x="400" arabic-form="medial" d="M-76.5 85q5.5 74 80.5 86q118 0 180.5 186t97.5 223t78 24q83 -42 24 -162q-40 -109 -49 -138.5t-7 -80t71 -59.5q63 5 80 -73v-18q-16 -73 -83 -73q-165 -1 -182 122q-44 -68 -91 -95t-116 -30q-89 14 -83.5 88zM262 850q0 65 79 88l328 13q26 0 38 -28l-19 -68 q-6 -35 -350 -57h-6q-70 0 -70 52z" />
<glyph unicode="&#x62b;" horiz-adv-x="1811" arabic-form="final" d="M27 299q0 183 268 349q113 58 235 91q192 45 326 45q51 0 75 -68v-28q0 -58 -78 -75h-53q-311 0 -523 -175q-93 -92 -93 -149q0 -134 366 -162l124 -2h2q578 24 751 139.5t197 237.5t69 156q17 7 36 7q75 -4 83 -81q-31 -98 -70 -175q-30 -104 -14 -161q15 -56 83 -84 q49 -5 68 -40.5t8.5 -68.5t-43.5 -47.5t-98 9t-110 94.5q-28 44 -32 104q-52 -49 -112 -77q-210 -97 -390 -122t-438 -25q-501 0 -614 210q-23 60 -23 98zM810 1104q0 65 108 88q151 24 560 48q35 0 52 -28l-26 -68q-9 -35 -590 -92h-8q-96 0 -96 52zM1089 1490q0 58 76 68 q73 0 124 -96v-20q0 -49 -88 -68h-20q-76 0 -92 116z" />
<glyph unicode="&#x62b;" horiz-adv-x="600" arabic-form="initial" d="M-85 79.5q5 69.5 76 80.5q171 3 249 73t97.5 203t73.5 167q0 6 30 7q107 -21 69 -161q-39 -184 -102 -262.5t-172 -138t-242 -47.5q-84 9 -79 78.5zM66 997q0 65 108 88q151 24 560 48q35 0 52 -28l-26 -68q-9 -35 -590 -92h-8q-96 0 -96 52zM345 1383q0 58 76 68 q73 0 124 -96v-20q0 -49 -88 -68h-20q-76 0 -92 116z" />
<glyph unicode="&#x62b;" horiz-adv-x="400" arabic-form="medial" d="M-76.5 85q5.5 74 80.5 86q118 0 180.5 186t97.5 223t78 24q83 -42 24 -162q-40 -109 -49 -138.5t-7 -80t71 -59.5q63 5 80 -73v-18q-16 -73 -83 -73q-165 -1 -182 122q-44 -68 -91 -95t-116 -30q-89 14 -83.5 88zM61 897q0 65 108 88q151 24 417 26q35 0 52 -28l-26 -68 q-9 -35 -447 -70h-8q-96 0 -96 52zM260 1187q0 58 76 68q73 0 124 -96v-20q0 -49 -88 -68h-20q-76 0 -92 116z" />
<glyph unicode="&#x62c;" horiz-adv-x="1283" arabic-form="final" d="M-204 -595q0 378 534 767q191 148 334 231q24 9 24 28q-24 57 -156 116l-34 5h-7q-85 -15 -219 -197q-95 -186 -120 -205h-10q-10 0 -12 51v31q0 148 41 192q33 74 197 226q64 53 116 53q102 0 337 -180q31 -12 61 -12t109 36q34 7 65 7q147 0 258 -103q14 -18 14 -29v-5 q0 -68 -84 -99l-31 -4q-47 0 -125 12q2 -10 4 -22q21 -130 195 -141q49 -5 68 -40.5t8.5 -68.5t-43.5 -47t-127.5 6.5t-184 97.5t-72.5 244q-10 2 -19 4h-12q-87 0 -443 -245q-117 -77 -298 -253q-238 -255 -238 -444v-29q0 -266 216 -385q146 -96 402 -93h5q237 9 536 83 q22 12 22 20l-9 16v20q8 33 29 33q97 -47 134 -115l2 -12q-3 -67 -265 -111t-423 -43h-19q-280 0 -505 109q-33 12 -144 120q-77 96 -94 187q-17 68 -17 152v36zM642 -530q0 58 76 68q73 0 124 -96v-20q0 -49 -88 -68h-20q-76 0 -92 116z" />
<glyph unicode="&#x62c;" horiz-adv-x="1000" arabic-form="initial" d="M-73 73v11q0 50 61 71q91 0 199 50q197 75 371 183q-117 176 -186 176q-46 -1 -178 -190q-34 -43 -57 -43t-54 56l-4 25q0 76 119 192q113 123 177 123h2q89 0 204 -159q74 -95 90 -111q87 60 122 60h18q40 0 66 -53q6 -13 6 -29q0 -60 -74 -131q-49 -38 -95 -38l-36 9 q-178 -107 -303 -165q-254 -105 -299 -105q-24 -5 -65 -5h-7q-51 0 -73 51zM194 -383q0 59 76 68q73 0 124 -96v-20q0 -49 -88 -68h-20q-76 0 -92 116z" />
<glyph unicode="&#x62c;" horiz-adv-x="850" arabic-form="medial" d="M-75 73v11q0 50 61 71q335 6 570 233q-117 176 -186 176q-46 -1 -178 -190q-34 -43 -57 -43t-54 56l-4 25q0 76 119 192q113 123 177 123h2q89 0 204 -159q74 -95 90 -111q87 60 122 60h18q40 0 66 -53q6 -13 6 -29q0 -60 -74 -131q-49 -38 -95 -38l-36 9l-14 -10 q16 -90 189 -102q49 -5 68 -40.5t8.5 -68.5t-43.5 -47t-114 -3.5t-161 110.5q-33 42 -49 78q-234 -159 -372 -175.5t-179 -16.5h-7q-51 0 -73 51zM216 -406q0 59 76 68q73 0 124 -96v-20q0 -49 -88 -68h-20q-76 0 -92 116z" />
<glyph unicode="&#x62d;" horiz-adv-x="1288" arabic-form="final" d="M-204 -595q0 378 534 767q191 148 334 231q24 9 24 28q-24 57 -156 116l-34 5h-7q-85 -15 -219 -197q-95 -186 -120 -205h-10q-10 0 -12 51v31q0 148 41 192q33 74 197 226q64 53 116 53q102 0 337 -180q31 -12 61 -12t109 36q34 7 65 7q147 0 258 -103q14 -18 14 -29v-5 q0 -68 -84 -99l-31 -4q-47 0 -125 12q2 -10 4 -22q21 -130 195 -141q49 -5 68 -40.5t8.5 -68.5t-43.5 -47t-127.5 6.5t-184 97.5t-72.5 244q-10 2 -19 4h-12q-87 0 -443 -245q-117 -77 -298 -253q-238 -255 -238 -444v-29q0 -266 216 -385q146 -96 402 -93h5q237 9 536 83 q22 12 22 20l-9 16v20q8 33 29 33q97 -47 134 -115l2 -12q-3 -67 -265 -111t-423 -43h-19q-280 0 -505 109q-33 12 -144 120q-77 96 -94 187q-17 68 -17 152v36z" />
<glyph unicode="&#x62d;" horiz-adv-x="1000" arabic-form="initial" d="M-73 73v11q0 50 61 71q91 0 199 50q197 75 371 183q-117 176 -186 176q-46 -1 -178 -190q-34 -43 -57 -43t-54 56l-4 25q0 76 119 192q113 123 177 123h2q89 0 204 -159q74 -95 90 -111q87 60 122 60h18q40 0 66 -53q6 -13 6 -29q0 -60 -74 -131q-49 -38 -95 -38l-36 9 q-178 -107 -303 -165q-254 -105 -299 -105q-24 -5 -65 -5h-7q-51 0 -73 51z" />
<glyph unicode="&#x62d;" horiz-adv-x="848" arabic-form="medial" d="M-75 73v11q0 50 61 71q335 6 570 233q-117 176 -186 176q-46 -1 -178 -190q-34 -43 -57 -43t-54 56l-4 25q0 76 119 192q113 123 177 123h2q89 0 204 -159q74 -95 90 -111q87 60 122 60h18q40 0 66 -53q6 -13 6 -29q0 -60 -74 -131q-49 -38 -95 -38l-36 9l-14 -10 q16 -90 189 -102q49 -5 68 -40.5t8.5 -68.5t-43.5 -47t-114 -3.5t-161 110.5q-33 42 -49 78q-234 -159 -372 -175.5t-179 -16.5h-7q-51 0 -73 51z" />
<glyph unicode="&#x62e;" horiz-adv-x="1284" arabic-form="final" d="M-204 -595q0 378 534 767q191 148 334 231q24 9 24 28q-24 57 -156 116l-34 5h-7q-85 -15 -219 -197q-95 -186 -120 -205h-10q-10 0 -12 51v31q0 148 41 192q33 74 197 226q64 53 116 53q102 0 337 -180q31 -12 61 -12t109 36q34 7 65 7q147 0 258 -103q14 -18 14 -29v-5 q0 -68 -84 -99l-31 -4q-47 0 -125 12q2 -10 4 -22q21 -130 195 -141q49 -5 68 -40.5t8.5 -68.5t-43.5 -47t-127.5 6.5t-184 97.5t-72.5 244q-10 2 -19 4h-12q-87 0 -443 -245q-117 -77 -298 -253q-238 -255 -238 -444v-29q0 -266 216 -385q146 -96 402 -93h5q237 9 536 83 q22 12 22 20l-9 16v20q8 33 29 33q97 -47 134 -115l2 -12q-3 -67 -265 -111t-423 -43h-19q-280 0 -505 109q-33 12 -144 120q-77 96 -94 187q-17 68 -17 152v36zM354 1258q0 58 76 68q73 0 124 -96v-20q0 -49 -88 -68h-20q-76 0 -92 116z" />
<glyph unicode="&#x62e;" horiz-adv-x="1000" arabic-form="initial" d="M-73 73v11q0 50 61 71q91 0 199 50q197 75 371 183q-117 176 -186 176q-46 -1 -178 -190q-34 -43 -57 -43t-54 56l-4 25q0 76 119 192q113 123 177 123h2q89 0 204 -159q74 -95 90 -111q87 60 122 60h18q40 0 66 -53q6 -13 6 -29q0 -60 -74 -131q-49 -38 -95 -38l-36 9 q-178 -107 -303 -165q-254 -105 -299 -105q-24 -5 -65 -5h-7q-51 0 -73 51zM280 1155q0 58 76 68q73 0 124 -96v-20q0 -49 -88 -68h-20q-76 0 -92 116z" />
<glyph unicode="&#x62e;" horiz-adv-x="852" arabic-form="medial" d="M-75 73v11q0 50 61 71q335 6 570 233q-117 176 -186 176q-46 -1 -178 -190q-34 -43 -57 -43t-54 56l-4 25q0 76 119 192q113 123 177 123h2q89 0 204 -159q74 -95 90 -111q87 60 122 60h18q40 0 66 -53q6 -13 6 -29q0 -60 -74 -131q-49 -38 -95 -38l-36 9l-14 -10 q16 -90 189 -102q49 -5 68 -40.5t8.5 -68.5t-43.5 -47t-114 -3.5t-161 110.5q-33 42 -49 78q-234 -159 -372 -175.5t-179 -16.5h-7q-51 0 -73 51zM319 1110q0 58 76 68q73 0 124 -96v-20q0 -49 -88 -68h-20q-76 0 -92 116z" />
<glyph unicode="&#x62f;" horiz-adv-x="719" arabic-form="final" d="M-94 -96q0 56 85 85q136 65 212.5 126.5t184 194t170 297.5t107.5 176t72 -30.5t-37.5 -209.5t-53 -274.5t63.5 -112.5q56 0 75 -58l2 -14v-11q0 -48 -58 -70l-19 -2q-109 0 -151 59.5t-36 178.5h-2q-123 -185 -241 -266q-102 -76 -176 -114t-92 -38h-17q-60 0 -87 57 l-2 18v8z" />
<glyph unicode="&#x630;" horiz-adv-x="717" arabic-form="final" d="M-90 -96q0 56 85 85q136 65 212.5 126.5t184 194t170 297.5t107.5 176t72 -30.5t-37.5 -209.5t-53 -274.5t63.5 -112.5q56 0 75 -58l2 -14v-11q0 -48 -58 -70l-19 -2q-109 0 -151 59.5t-36 178.5h-2q-123 -185 -241 -266q-102 -76 -176 -114t-92 -38h-17q-60 0 -87 57 l-2 18v8zM501 1422q0 58 76 68q73 0 124 -96v-20q0 -49 -88 -68h-20q-76 0 -92 116z" />
<glyph unicode="&#x631;" horiz-adv-x="511" arabic-form="final" d="M-401 -589q0 36 45 74q0 3 172 171q181 182 227 243q133 156 226 294q107 166 142.5 285.5t90.5 106.5q45 0 70 -45q7 -15 7 -32v-3q0 -45 -51.5 -158.5t-35.5 -147.5t57.5 -46.5t45.5 -74.5q0 -49 -50 -72q-14 -4 -25 -4h-10q-121 8 -138 104q-163 -244 -425 -524 q-107 -116 -167 -181t-73 -65q-12 -7 -31 -7q-47 0 -71 51q-6 14 -6 25v6z" />
<glyph unicode="&#x632;" horiz-adv-x="517" arabic-form="final" d="M-397 -589q0 36 45 74q0 3 172 171q181 182 227 243q133 156 226 294q107 166 142.5 285.5t90.5 106.5q45 0 70 -45q7 -15 7 -32v-3q0 -45 -51.5 -158.5t-35.5 -147.5t57.5 -46.5t45.5 -74.5q0 -49 -50 -72q-14 -4 -25 -4h-10q-121 8 -138 104q-163 -244 -425 -524 q-107 -116 -167 -181t-73 -65q-12 -7 -31 -7q-47 0 -71 51q-6 14 -6 25v6zM440 1261q0 58 76 68q73 0 124 -96v-20q0 -49 -88 -68h-20q-76 0 -92 116z" />
<glyph unicode="&#x633;" horiz-adv-x="3182" arabic-form="final" d="M73 226q0 250 189 477q120 127 169 151q143 102 321 157t385 85q147 15 189 15q101 -15 101 -93v-12q0 -57 -68 -106l-33 -8q-46 0 -70 43q-199 -18 -366 -61q-171 -48 -273 -104t-193 -145q-180 -189 -180 -394v-5q0 -236 177 -409q268 -217 673 -217q458 0 860 279 q136 99 176 246l7 35q-24 47 -25 117v20q0 79 37 96t51 17q99 0 100 -188q36 -62 208 -59.5t678 4.5q95 -3 95 -75q0 -85 -93 -92q-856 -55 -938 26q-155 -319 -614 -504q-230 -78 -441 -78h-68q-398 0 -749 244q-114 89 -181 184q-124 178 -124 354z" />
<glyph unicode="&#x633;" horiz-adv-x="1310" arabic-form="initial" d="M-90 86q14 76 77 76q219 -42 497 12t456 200t212 -7v-3q4 -66 -172 -174t-466 -163t-435 -41q-146 14 -146 47q-23 21 -23 53z" />
<glyph unicode="&#x633;" horiz-adv-x="1104" arabic-form="medial" d="M-20 0v156q591 -38 1164 0v-156q-575 -47 -1164 0z" />
<glyph unicode="&#x634;" horiz-adv-x="3178" arabic-form="final" d="M69 226q0 250 189 477q120 127 169 151q143 102 321 157t385 85q147 15 189 15q101 -15 101 -93v-12q0 -57 -68 -106l-33 -8q-46 0 -70 43q-199 -18 -366 -61q-171 -48 -273 -104t-193 -145q-180 -189 -180 -394v-5q0 -236 177 -409q268 -217 673 -217q458 0 860 279 q136 99 176 246l7 35q-24 47 -25 117v20q0 79 37 96t51 17q99 0 100 -188q36 -62 208 -59.5t678 4.5q95 -3 95 -75q0 -85 -93 -92q-856 -55 -938 26q-155 -319 -614 -504q-230 -78 -441 -78h-68q-398 0 -749 244q-114 89 -181 184q-124 178 -124 354zM2473 932q0 65 108 88 q151 24 560 48q35 0 52 -28l-26 -68q-9 -35 -590 -92h-8q-96 0 -96 52zM2752 1440q0 58 76 68q73 0 124 -96v-20q0 -49 -88 -68h-20q-76 0 -92 116z" />
<glyph unicode="&#x634;" horiz-adv-x="1297" arabic-form="initial" d="M-90 86q14 76 77 76q218 -41 496.5 12.5t456.5 199.5t212 -7v-3q5 -66 -171.5 -174t-466 -163t-435.5 -41t-146 47q-23 21 -23 53zM358 907q0 65 108 88q151 24 560 48q35 0 52 -28l-26 -68q-9 -35 -590 -92h-8q-96 0 -96 52zM641 1441q0 58 76 68q73 0 124 -96v-20 q0 -49 -88 -68h-20q-76 0 -92 116z" />
<glyph unicode="&#x634;" horiz-adv-x="1083" arabic-form="medial" d="M-36 0v156q591 -38 1164 -1v-155q-575 -48 -1164 0zM241 694q0 65 108 88q151 24 560 48q35 0 52 -28l-26 -68q-9 -35 -590 -92h-8q-96 0 -96 52zM524 1228q0 58 76 68q73 0 124 -96v-20q0 -49 -88 -68h-20q-76 0 -92 116z" />
<glyph unicode="&#x635;" horiz-adv-x="3060" arabic-form="final" d="M98 1q0 397 708 664q258 82 520 82h58q73 0 86 -65v-17q-16 -69 -62 -69h-92q-503 0 -924 -328q-143 -130 -143 -277q0 -233 318 -390q162 -58 352 -58h75q366 0 770 260q189 130 270 349l14 44q-21 57 -21 127q8 167 52 167q0 11 48 17q92 -16 92 -119l3 -35l-13 -136 q17 -35 48 -35q31 69 232 267q239 202 421 202q138 0 175 -137l3 -34v-24q0 -122 -158 -253q8 -9 14 -17q24 -28 115 -28q49 -5 68 -40.5t1 -71t-43.5 -44t-92 0t-113.5 42.5t-68 73q-179 -114 -411 -114h-3q-48 0 -92 18q-87 -147 -93 -147h-3q-48 16 -48 86v6q0 36 24 85 l-28 14q-105 -289 -431 -472q-323 -177 -691 -177q-650 0 -875 352q-62 106 -62 232zM2383 148h17q258 0 445 181q96 91 96 131t-27 41h-11q-146 0 -479 -298l-41 -51v-4z" />
<glyph unicode="&#x635;" horiz-adv-x="1300" arabic-form="initial" d="M-82 70v10q0 35 51 58q54 5 54 12q17 10 23 40.5t16.5 106.5t37 139t86.5 66.5t80 -52t-3.5 -120.5t-48.5 -114q10 -26 35 -38l17 -4q38 63 146 182q94 96 151 141q223 173 388 173q141 0 183 -128q10 -33 10 -62q0 -182 -288 -367q-203 -122 -444 -122q-38 0 -95 18 l-91 -151q-5 -5 -11 -5q-23 0 -44 64l-4 31q2 44 27 93q-6 0 -31 15q-44 -56 -114 -56l-35 -1h-20q-54 0 -72 51q-4 12 -4 20zM397 141l33 -1q260 0 458 191q100 86 100 145v7q0 31 -28 31h-12q-126 0 -407 -227q-99 -83 -144 -145v-1z" />
<glyph unicode="&#x635;" horiz-adv-x="1104" arabic-form="medial" d="M-78 70v10q0 35 51 58q54 5 54 12q17 10 23 40.5t16.5 106.5t37 139t86.5 66.5t80 -52t-3.5 -120.5t-48.5 -114q10 -26 35 -38l17 -4q38 63 146 182q94 96 151 141q223 173 388 173q141 0 183 -128q10 -33 10 -62q0 -142 -176 -286q2 -4 6 -8q24 -28 116 -28 q49 -5 68 -40.5t1 -71t-43.5 -44t-92 0t-110.5 40.5t-65 65q-200 -117 -436 -117q-38 0 -95 18l-91 -151q-5 -5 -11 -5q-23 0 -44 64l-4 31q2 44 27 93q-6 0 -31 15q-44 -56 -114 -56l-35 -1h-20q-54 0 -72 51q-4 12 -4 20zM401 141l33 -1q260 0 458 191q100 86 100 145v7 q0 31 -28 31h-12q-126 0 -407 -227q-99 -83 -144 -145v-1z" />
<glyph unicode="&#x636;" horiz-adv-x="3061" arabic-form="final" d="M102 1q0 397 708 664q258 82 520 82h58q73 0 86 -65v-17q-16 -69 -62 -69h-92q-503 0 -924 -328q-143 -130 -143 -277q0 -233 318 -390q162 -58 352 -58h75q366 0 770 260q189 130 270 349l14 44q-21 57 -21 127q8 167 52 167q0 11 48 17q92 -16 92 -119l3 -35l-13 -136 q17 -35 48 -35q31 69 232 267q239 202 421 202q138 0 175 -137l3 -34v-24q0 -122 -158 -253q8 -9 14 -17q24 -28 115 -28q49 -5 68 -40.5t1 -71t-43.5 -44t-92 0t-113.5 42.5t-68 73q-179 -114 -411 -114h-3q-48 0 -92 18q-87 -147 -93 -147h-3q-48 16 -48 86v6q0 36 24 85 l-28 14q-105 -289 -431 -472q-323 -177 -691 -177q-650 0 -875 352q-62 106 -62 232zM2323 1197q0 58 76 68q73 0 124 -96v-20q0 -49 -88 -68h-20q-76 0 -92 116zM2387 148h17q258 0 445 181q96 91 96 131t-27 41h-11q-146 0 -479 -298l-41 -51v-4z" />
<glyph unicode="&#x636;" horiz-adv-x="1300" arabic-form="initial" d="M-86 70v10q0 35 51 58q54 5 54 12q17 10 23 40.5t16.5 106.5t37 139t86.5 66.5t80 -52t-3.5 -120.5t-48.5 -114q10 -26 35 -38l17 -4q38 63 146 182q94 96 151 141q223 173 388 173q141 0 183 -128q10 -33 10 -62q0 -182 -288 -367q-203 -122 -444 -122q-38 0 -95 18 l-91 -151q-5 -5 -11 -5q-23 0 -44 64l-4 31q2 44 27 93q-6 0 -31 15q-44 -56 -114 -56l-35 -1h-20q-54 0 -72 51q-4 12 -4 20zM393 141l33 -1q260 0 458 191q100 86 100 145v7q0 31 -28 31h-12q-126 0 -407 -227q-99 -83 -144 -145v-1zM536 1227q0 58 76 68q73 0 124 -96 v-20q0 -49 -88 -68h-20q-76 0 -92 116z" />
<glyph unicode="&#x636;" horiz-adv-x="1100" arabic-form="medial" d="M-78 70v10q0 35 51 58q54 5 54 12q17 10 23 40.5t16.5 106.5t37 139t86.5 66.5t80 -52t-3.5 -120.5t-48.5 -114q10 -26 35 -38l17 -4q38 63 146 182q94 96 151 141q223 173 388 173q141 0 183 -128q10 -33 10 -62q0 -142 -176 -286q2 -4 6 -8q24 -28 116 -28 q49 -5 68 -40.5t1 -71t-43.5 -44t-92 0t-110.5 40.5t-65 65q-200 -117 -436 -117q-38 0 -95 18l-91 -151q-5 -5 -11 -5q-23 0 -44 64l-4 31q2 44 27 93q-6 0 -31 15q-44 -56 -114 -56l-35 -1h-20q-54 0 -72 51q-4 12 -4 20zM401 141l33 -1q260 0 458 191q100 86 100 145v7 q0 31 -28 31h-12q-126 0 -407 -227q-99 -83 -144 -145v-1zM615 1284q0 58 76 68q73 0 124 -96v-20q0 -49 -88 -68h-20q-76 0 -92 116z" />
<glyph unicode="&#x637;" horiz-adv-x="1049" arabic-form="final" d="M71 76q12 81 77 81l99 3v22q0 38 164 228q149 157 202 197l-7 31q0 166 73 636q50 275 78 373q30 36 78 36t70 -62v-24q-100 -468 -128 -814l-5 -57h2q94 57 162 57q101 0 140 -112l5 -40q15 -291 -146 -443q26 -25 113 -24q49 -5 68 -40.5t1 -71t-43.5 -44t-113 2.5 t-147.5 93q-218 -115 -540 -104q-163 -2 -163 10q-39 28 -39 66zM432 182h3q156 -28 317 71t179 242.5t-57 114.5t-246 -193q-158 -173 -196 -235z" />
<glyph unicode="&#x637;" horiz-adv-x="1055" arabic-form="initial" d="M-80 76q12 81 77 81l99 3v22q0 38 164 228q149 157 202 197l-7 31q0 166 73 636q50 275 78 373q30 36 78 36t70 -62v-24q-100 -468 -128 -814l-5 -57h2q94 57 162 57q101 0 140 -112l5 -40q18 -347 -213.5 -495.5t-594.5 -135.5q-163 -2 -163 10q-39 28 -39 66zM281 182 h3q156 -28 317 71t179 242.5t-57 114.5t-246 -193q-158 -173 -196 -235z" />
<glyph unicode="&#x637;" horiz-adv-x="902" arabic-form="medial" d="M-80 76q12 81 77 81l99 3v22q0 38 164 228q149 157 202 197l-7 31q0 166 73 636q50 275 78 373q30 36 78 36t70 -62v-24q-100 -468 -128 -814l-5 -57h2q94 57 162 57q101 0 140 -112l5 -40q15 -291 -146 -443q26 -25 113 -24q49 -5 68 -40.5t1 -71t-43.5 -44t-113 2.5 t-147.5 93q-218 -115 -540 -104q-163 -2 -163 10q-39 28 -39 66zM281 182h3q156 -28 317 71t179 242.5t-57 114.5t-246 -193q-158 -173 -196 -235z" />
<glyph unicode="&#x638;" horiz-adv-x="1043" arabic-form="final" d="M71 76q12 81 77 81l99 3v22q0 38 164 228q149 157 202 197l-7 31q0 166 73 636q50 275 78 373q30 36 78 36t70 -62v-24q-100 -468 -128 -814l-5 -57h2q94 57 162 57q101 0 140 -112l5 -40q15 -291 -146 -443q26 -25 113 -24q49 -5 68 -40.5t1 -71t-43.5 -44t-113 2.5 t-147.5 93q-218 -115 -540 -104q-163 -2 -163 10q-39 28 -39 66zM432 182h3q156 -28 317 71t179 242.5t-57 114.5t-246 -193q-158 -173 -196 -235zM960 1431q0 58 76 68q73 0 124 -96v-20q0 -49 -88 -68h-20q-76 0 -92 116z" />
<glyph unicode="&#x638;" horiz-adv-x="1048" arabic-form="initial" d="M-80 76q12 81 77 81l99 3v22q0 38 164 228q149 157 202 197l-7 31q0 166 73 636q50 275 78 373q30 36 78 36t70 -62v-24q-100 -468 -128 -814l-5 -57h2q94 57 162 57q101 0 140 -112l5 -40q18 -347 -213.5 -495.5t-594.5 -135.5q-163 -2 -163 10q-39 28 -39 66zM281 182 h3q156 -28 317 71t179 242.5t-57 114.5t-246 -193q-158 -173 -196 -235zM960 1431q0 58 76 68q73 0 124 -96v-20q0 -49 -88 -68h-20q-76 0 -92 116z" />
<glyph unicode="&#x638;" horiz-adv-x="976" arabic-form="medial" d="M0 76q12 81 77 81l99 3v22q0 38 164 228q149 157 202 197l-7 31q0 166 73 636q50 275 78 373q30 36 78 36t70 -62v-24q-100 -468 -128 -814l-5 -57h2q94 57 162 57q101 0 140 -112l5 -40q15 -291 -146 -443q26 -25 113 -24q49 -5 68 -40.5t1 -71t-43.5 -44t-113 2.5 t-147.5 93q-218 -115 -540 -104q-163 -2 -163 10q-39 28 -39 66zM361 182h3q156 -28 317 71t179 242.5t-57 114.5t-246 -193q-158 -173 -196 -235zM960 1431q0 58 76 68q73 0 124 -96v-20q0 -49 -88 -68h-20q-76 0 -92 116z" />
<glyph unicode="&#x639;" horiz-adv-x="913" arabic-form="final" d="M-168 -578q0 333 440 653q140 92 246 140l64 25v1q48 30 65 53v15q0 49 -86 49l-124 -8q-95 13 -95 75v30q0 72 159 69h164q294 0 294 -83v-19q0 -104 -109 -218l-41 -34q79 -15 116 -7q71 -27 71 -76v-11q0 -65 -83 -79q-205 -4 -308 75q-111 4 -363 -193 q-137 -125 -178 -185q-104 -150 -104 -253v-27q0 -110 101.5 -221t312.5 -161.5t493.5 -1t345.5 71t138 21.5h8q90 0 90 -81q0 -65 -149 -119q-15 -8 -34 4t-31 36.5t-252 -36.5t-597 -31.5t-513 335.5q-41 96 -41 191z" />
<glyph unicode="&#x639;" horiz-adv-x="792" arabic-form="initial" d="M-83 73q17 74 83 78l48 2h30l3 3h2q-17 50 -17 82q0 231 371 468l33 5q51 0 77 -54l2 -18q0 -58 -123 -112q-160 -102 -184 -185l-10 -69q11 -84 25 -84l325 105l36 5h23q54 0 67 -59v-31q0 -45 -113 -79q-345 -142 -595 -133q-74 7 -83 76z" />
<glyph unicode="&#x639;" horiz-adv-x="730" arabic-form="medial" d="M-87 83q0 83 117 80q177 -1 361 78q48 30 65 53v15q0 49 -86 49l-124 -8q-95 13 -95 75v30q0 72 159 69h164q294 0 294 -83v-19q0 -104 -109 -218l-41 -34q79 -15 116 -7q71 -27 71 -76v-11q0 -65 -83 -79q-205 -4 -308 75q-221 -79 -418 -72h-3q-65 0 -80 83z" />
<glyph unicode="&#x63a;" horiz-adv-x="870" arabic-form="final" d="M-215 -578q0 333 440 653q140 92 246 140l64 25v1q48 30 65 53v15q0 49 -86 49l-124 -8q-95 13 -95 75v30q0 72 159 69h164q294 0 294 -83v-19q0 -104 -109 -218l-41 -34q79 -15 116 -7q71 -27 71 -76v-11q0 -65 -83 -79q-205 -4 -308 75q-111 4 -363 -193 q-137 -125 -178 -185q-104 -150 -104 -253v-27q0 -110 101.5 -221t312.5 -161.5t493.5 -1t345.5 71t138 21.5h8q90 0 90 -81q0 -65 -149 -119q-15 -8 -34 4t-31 36.5t-252 -36.5t-597 -31.5t-513 335.5q-41 96 -41 191zM582 965q0 58 76 68q73 0 124 -96v-20q0 -49 -88 -68 h-20q-76 0 -92 116z" />
<glyph unicode="&#x63a;" horiz-adv-x="792" arabic-form="initial" d="M-83 73q17 74 83 78l48 2h30l3 3h2q-17 50 -17 82q0 231 371 468l33 5q51 0 77 -54l2 -18q0 -58 -123 -112q-160 -102 -184 -185l-10 -69q11 -84 25 -84l325 105l36 5h23q54 0 67 -59v-31q0 -45 -113 -79q-345 -142 -595 -133q-74 7 -83 76zM354 1274q0 58 76 68 q73 0 124 -96v-20q0 -49 -88 -68h-20q-76 0 -92 116z" />
<glyph unicode="&#x63a;" horiz-adv-x="851" arabic-form="medial" d="M-90 83q0 83 117 80q177 -1 361 78q48 30 65 53v15q0 49 -125 49l-158 -11q-94 13 -94 75v30q0 72 192 72h203q294 0 294 -83v-19q0 -104 -109 -218l-41 -34q79 -15 210 -6q50 -28 50 -77v-11q0 -64 -83 -79q-278 -4 -381 75q-221 -79 -418 -72h-3q-65 0 -80 83z M376 1104q0 58 76 68q73 0 124 -96v-20q0 -49 -88 -68h-20q-76 0 -92 116z" />
<glyph unicode="&#x641;" horiz-adv-x="2270" arabic-form="final" d="M71 383q0 291 411 525q128 74 317 140t208 65h5q85 -12 85 -81v-15q0 -66 -117 -89q-415 -138 -572 -266q-171 -116 -171 -270v-24q0 -287 461 -414q119 -32 262 -32q420 0 934 255q-15 63 -15 104q0 222 181 364q75 52 134 52h7q121 0 159 -139l5 -52v-5 q0 -137 -122 -292q-25 -24 -49 -45q34 -7 83 -6q49 -5 68 -40.5t1 -71t-43.5 -44t-117 -1.5t-123.5 23t-44 24q-123 -70 -260 -123q-392 -139 -733 -139q-425 0 -743 222q-211 165 -211 375zM1675 1344q0 58 76 68q73 0 124 -96v-20q0 -49 -88 -68h-20q-76 0 -92 116z M2050 306q0 -28 8 -28q100 85 119 164q14 25 14 59v5l-2 13q-85 -41 -131 -159q-8 -26 -8 -54z" />
<glyph unicode="&#x641;" horiz-adv-x="707" arabic-form="initial" d="M-90 67v23q0 66 90 75q97 0 146 15v3q-30 46 -30 90v19q0 121 232 325q99 79 183 79h38q122 0 138 -157q0 -309 -494 -509q-89 -30 -202 -30h-26q-75 17 -75 67zM247 288q0 -37 33 -60q91 36 221 165q56 74 56 112q0 14 -22 30h-4q-75 0 -258 -180q-26 -29 -26 -48v-19z M418 1340q0 58 76 68q73 0 124 -96v-20q0 -49 -88 -68h-20q-76 0 -92 116z" />
<glyph unicode="&#x641;" horiz-adv-x="601" arabic-form="medial" d="M-90 67v23q0 66 90 75q97 0 146 15v3q-30 46 -30 90v19q0 121 232 325q99 79 183 79h38q122 0 138 -157q0 -212 -232 -372q55 -9 136 -3q49 -5 68 -40.5t8.5 -68.5t-43.5 -47.5t-86 -8t-139 17.5t-140 41q-32 -14 -93 -36q-62 -22 -175 -22h-26q-75 17 -75 67zM247 288 q0 -37 33 -60q91 36 221 165q56 74 56 112q0 14 -22 30h-4q-75 0 -258 -180q-26 -29 -26 -48v-19zM496 1062q0 58 76 68q73 0 124 -96v-20q0 -49 -88 -68h-20q-76 0 -92 116z" />
<glyph unicode="&#x642;" horiz-adv-x="2474" arabic-form="final" d="M-34 26v28q0 112 61 263q37 88 149 210q146 134 246 184q172 105 429 195q345 123 761 123q361 -8 361 -22q45 -26 45 -78t-62 -75l-14 -2q-230 13 -337 13q-484 0 -902 -193q-167 -72 -324 -181q-185 -135 -240 -307q-19 -77 -19 -148q0 -200 248 -387 q269 -178 616 -178h22q383 0 804 197q104 53 206 130q96 82 141 143l47 67v2h-2q-140 0 -195 132q-15 40 -15 85v13q0 173 154 264q57 25 103 25h9q126 0 188 -136q18 -51 18 -110t-18 -125h27q49 -5 68 -40.5t1 -71t-43 -43.5t-112 -2l-25 -50q-47 -90 -167 -214 q-114 -106 -212 -160q-104 -64 -293 -131q-310 -100 -623 -100q-499 0 -857 266q-244 204 -244 414zM1884 1406q0 65 108 88q151 24 560 48q35 0 52 -28l-26 -68q-9 -35 -590 -92h-8q-96 0 -96 52zM2156 227q0 -41 32 -55t57 -15h4q47 0 59 122l2 15q-8 71 -62 71t-85 -78 q-7 -24 -7 -50v-10z" />
<glyph unicode="&#x642;" horiz-adv-x="701" arabic-form="initial" d="M-90 67v23q0 66 90 75q97 0 146 15v3q-30 46 -30 90v19q0 121 232 325q99 79 183 79h38q122 0 138 -157q0 -309 -494 -509q-89 -30 -202 -30h-26q-75 17 -75 67zM110 1328q0 65 108 88q151 24 560 48q35 0 52 -28l-26 -68q-9 -35 -590 -92h-8q-96 0 -96 52zM247 288 q0 -37 33 -60q91 36 221 165q56 74 56 112q0 14 -22 30h-4q-75 0 -258 -180q-26 -29 -26 -48v-19z" />
<glyph unicode="&#x642;" horiz-adv-x="600" arabic-form="medial" d="M-90 67v23q0 66 90 75q97 0 146 15v3q-30 46 -30 90v19q0 121 232 325q99 79 183 79h38q122 0 138 -157q0 -212 -232 -372q55 -9 136 -3q49 -5 68 -40.5t8.5 -68.5t-43.5 -47.5t-86 -8t-139 17.5t-140 41q-32 -14 -93 -36q-62 -22 -175 -22h-26q-75 17 -75 67zM241 1072 q0 65 108 88l373 13q35 0 52 -28l-26 -68q-9 -35 -403 -57h-8q-96 0 -96 52zM247 288q0 -37 33 -60q91 36 221 165q56 74 56 112q0 14 -22 30h-4q-75 0 -258 -180q-26 -29 -26 -48v-19z" />
<glyph unicode="&#x643;" horiz-adv-x="2098" arabic-form="final" d="M172 436q0 327 552 563l112 35h14q70 -14 70 -70v-11q0 -65 -119 -90q-475 -195 -475 -441q0 -199 419 -283q73 -14 154 -14q293 0 675 213q106 64 252 213q115 135 115 312l-7 101q22 63 63 63h21q62 0 70 -81l3 -55v-53q0 -78 -11 -117t-33 -165t-27 -225.5 t19.5 -135.5t49.5 -33q49 -5 68 -39.5t1 -70t-43.5 -44t-58.5 -7t-73.5 22.5t-83.5 104.5t-6 265.5q-123 -124 -322 -231q-340 -154 -633 -154h-35q-389 0 -626 193q-105 110 -105 234zM1972 1397v18q0 37 78 53.5t182 39t389.5 132.5t564.5 366l42 14q56 0 77 -63v-21 q0 -38 -101 -132q-586 -394 -1005 -449q-15 -7 -160 -28q-52 0 -67 70z" />
<glyph unicode="&#x643;" horiz-adv-x="691" arabic-form="initial" d="M-78 70v23q0 69 85 69q122 0 247.5 102.5t139 242.5t-15 279.5t6 173t71.5 4t68 -165.5t11 -343.5t-175.5 -325t-352.5 -129.5q-85 8 -85 70zM400.5 1276.5q-16.5 68.5 68 111t296.5 149t503 319.5l42 14q56 0 77 -63v-21q0 -57 -397.5 -283t-485 -260.5t-104 34z" />
<glyph unicode="&#x643;" horiz-adv-x="543" arabic-form="medial" d="M-87 70v23q0 69 85 69q122 0 247.5 102.5t139 242.5t-15 279.5t6 173t71.5 4t68 -165.5t11 -344q-7 -76 -33 -140q9 -126 52 -142.5t57 -42.5t9 -62t-35 -56t-79 3.5t-95 95.5q-13 21 -21 45q-157 -141 -383 -155q-85 8 -85 70zM391.5 1276.5q-16.5 68.5 68 111 t296.5 149t503 319.5l42 14q56 0 77 -63v-21q0 -57 -397.5 -283t-485 -260.5t-104 34z" />
<glyph unicode="&#x644;" horiz-adv-x="2133" arabic-form="final" d="M27 -4q0 175 193 367q188 165 379 223t331 58t164 -96l3 -28q-14 -104 -96 -104q-54 0 -66 56h-5q-150 0 -378 -86q-380 -191 -380 -426q0 -174 263 -261q109 -33 266 -33h3q837 0 1166 646q87 145 87 670v200l-3 23q0 56 66 81l23 2q62 0 83 -73v-5l3 -206 q0 -421 -53 -632q-8 -79 2 -118q18 -69 96 -97q21 -10 34 -39.5t11 -61t-43.5 -48.5t-90.5 6.5t-95 95.5q-12 18 -19 39q-64 -93 -197 -234q-406 -396 -961 -396h-68q-347 0 -563 160q-155 131 -155 286v31z" />
<glyph unicode="&#x644;" horiz-adv-x="400" arabic-form="initial" d="M-73 70v23q1 69 93 69t126.5 104t21 260.5t-26.5 272t13 144t72 17t67 -147t25 -353t-63.5 -332.5t-242.5 -127q-85 8 -85 70z" />
<glyph unicode="&#x644;" horiz-adv-x="343" arabic-form="medial" d="M-73 70v23q0 69 85 69q100 0 128.5 130.5t37 246.5t15 251.5t41 169t71.5 4t29.5 -276t-49.5 -410.5q11 -92 51 -107t54 -41t9 -62t-35 -56t-75 1t-84 76q-66 -79 -193 -88q-85 8 -85 70z" />
<glyph unicode="&#x645;" horiz-adv-x="1458" arabic-form="final" d="M78 12q0 329 480 563q349 153 603 153q168 0 269 -150q54 -90 54 -187t-44 -173q-3 -56 25 -62q39 -9 54.5 -45.5t3 -68t-38 -40t-76.5 10.5t-78 81q-25 -20 -53 -39q-98 -52 -165 -52h-28q-108 0 -198 101q-68 86 -68 209v5q0 102 119 250v2q-264 -76 -478 -226 q-228 -177 -228 -351q0 -254 231 -497q19 -21 19 -47v-15q0 -59 -64 -79l-16 -1q-45 0 -85 59q-168 204 -219 438q-19 98 -19 161zM975 300q0 -118 112 -160l33 -5q74 0 170 102q61 81 61 155t-98 153q-39 19 -55 19q-61 0 -174 -130q-49 -72 -49 -122v-12z" />
<glyph unicode="&#x645;" horiz-adv-x="706" arabic-form="initial" d="M-77.5 72.5q-2.5 54.5 29.5 75t69.5 25t82.5 60.5t140 195t203 139h5q64 0 106.5 -63t39 -182.5t-66.5 -220.5t-203 -104q-124 10 -171 102q-92 -110 -169 -98q-63 17 -65.5 71.5zM250 195q12 -33 69 -48t111.5 36.5t51 117t-45.5 83.5t-109 -72t-77 -117z" />
<glyph unicode="&#x645;" horiz-adv-x="638" arabic-form="medial" d="M-69.5 72.5q-2.5 54.5 29.5 75t69.5 25t82.5 60.5t140 195t203 139h5q64 0 106.5 -63t39.5 -155t-21 -150q9 -35 54.5 -39t62 -41t-1.5 -72.5t-53.5 -44t-73.5 15.5t-60 49q-63 -68 -177 -70q-124 10 -171 102q-92 -110 -169 -98q-63 17 -65.5 71.5zM258 195 q12 -33 69 -48t111.5 36.5t51 117t-45.5 83.5t-109 -72t-77 -117z" />
<glyph unicode="&#x646;" horiz-adv-x="2481" arabic-form="final" d="M18 71q0 267 337 514q485 304 861 354q74 -13 74 -70v-22q0 -63 -152 -81q-55 0 -351 -114q-250 -121 -439 -269q-174 -171 -174 -317t177 -285q254 -156 603 -156h39q594 0 1056 382q154 151 184 277q12 59 28 151q-5 183 26 246q21 59 61 59h22q65 -1 74 -99l-22 -185 q-5 -64 -15 -120q-4 -64 1 -91q10 -53 78 -81q49 -5 68 -40.5t1 -91.5t-134 -15q-61 21 -104 85q-161 -229 -385 -353q-424 -258 -890 -258t-840 248q-184 151 -184 332zM1469 344q0 58 76 68q73 0 124 -96v-20q0 -49 -88 -68h-20q-76 0 -92 116z" />
<glyph unicode="&#x646;" horiz-adv-x="591" arabic-form="initial" d="M-94 79.5q5 69.5 76 80.5q171 3 249 73t97.5 203t73.5 167q0 6 30 7q107 -21 69 -161q-39 -184 -102 -262.5t-172 -138t-242 -47.5q-84 9 -79 78.5zM248 1111q0 58 76 68q73 0 124 -96v-20q0 -50 -88 -68h-20q-76 0 -92 116z" />
<glyph unicode="&#x646;" horiz-adv-x="400" arabic-form="medial" d="M-76.5 85q5.5 74 80.5 86q118 0 180.5 186t97.5 223t78 24q83 -42 24 -162q-40 -109 -49 -138.5t-7 -80t71 -59.5q63 5 80 -73v-18q-16 -73 -83 -73q-165 -1 -182 122q-44 -68 -91 -95t-116 -30q-89 14 -83.5 88zM236 1057q0 58 76 68q73 0 124 -96v-20q0 -49 -88 -68 h-20q-76 0 -92 116z" />
<glyph unicode="&#x647;" horiz-adv-x="623" arabic-form="final" d="M-299 -71q0 140 268 384q213 175 387 175t228 -130q15 -39 23 -163q6 -33 30 -33q65 -27 65 -73v-15q0 -62 -73 -80h-57q-81 0 -106 60q-23 28 -37 226q-15 58 -58 58l-15 2h-13q-157 0 -379 -243q-77 -98 -90 -145h3l35 5h7q81 -12 81 -78l2 -3v-2q0 -95 -150 -95 q-119 0 -148 102l-3 26v22z" />
<glyph unicode="&#x647;" horiz-adv-x="1199" arabic-form="initial" d="M-79.5 78.5q-7.5 64.5 78.5 79.5q62 1 91 4q-10 15 -10 30q0 109 128 235q78 71 156 98q22 50 63 50q140 0 430 -34q244 -41 244 -194q0 -132 -171 -235q-71 -52 -295 -80q-99 -16 -208 -14t-109 5q-147 -30 -317 -23q-73 14 -80.5 78.5zM231 177q0 -22 37 -22 q116 0 260 140q55 62 55 80q-24 22 -82 22q-152 0 -252 -164q-18 -34 -18 -56zM649 190q111 13 185 45q112 66 112 114q0 20 -151 44l-64 7v-3q7 -11 7 -25q0 -70 -89 -182z" />
<glyph unicode="&#x647;" horiz-adv-x="1083" arabic-form="medial" d="M-80.5 78.5q-7.5 64.5 78.5 79.5q62 1 91 4q-10 15 -10 30q0 109 128 235q78 71 156 98q22 50 63 50q140 0 430 -34q244 -41 244 -194q0 -93 -85 -172q35 -17 73 -19q39 -2 58 -37.5t1 -71t-43.5 -44t-101.5 -0.5t-119 30t-57 35q-189 -52 -400 -50q-109 2 -109 5 q-147 -30 -317 -23q-73 14 -80.5 78.5zM230 177q0 -22 37 -22q116 0 260 140q55 62 55 80q-24 22 -82 22q-152 0 -252 -164q-18 -34 -18 -56zM648 190q111 13 185 45q112 66 112 114q0 20 -151 44l-64 7v-3q7 -11 7 -25q0 -70 -89 -182z" />
<glyph unicode="&#x648;" horiz-adv-x="497" arabic-form="final" d="M-253 -448q5 57 76 100q263 225 352 369q-130 54 -116 173q-1 128 184 326q85 72 161 65q87 -8 114 -116q13 -126 -66 -302q83 -2 103.5 -40.5t10 -71.5t-48 -49.5t-154.5 -6.5q-32 -52 -85 -128q-53 -75 -228 -235t-225 -174l-15 1q-37 3 -59 52q-9 17 -4 37z M235.5 240.5q-23.5 -60.5 24.5 -69.5q26 18 71 139l19 80q-91 -89 -114.5 -149.5z" />
<glyph unicode="&#x649;" horiz-adv-x="1818" arabic-form="final" d="M20 -167q0 188 297 455q215 173 363 230q302 142 453 142h31q73 0 85 -54l2 -12q0 -83 -168 -237l-21 -5h-10q-68 0 -81 83q5 20 38 62q-247 -42 -412 -152q-97 -53 -283 -223q-152 -166 -152 -294q0 -106 150 -201q134 -69 301 -69h48q231 0 529 92q135 50 232 112 q169 116 169 159q0 28 -152 104q-48 32 -48 73v3q0 72 83 80h3l123 -16l33 -3l140 3h7l34 2q55 0 76 -69v-14q0 -66 -81 -78h-31l-52 -3q26 -48 26 -87q0 -96 -204 -225q-131 -96 -346 -174q-302 -99 -601 -99q-463 0 -567 296q-14 52 -14 98v21z" />
<glyph unicode="&#x64a;" horiz-adv-x="1493" arabic-form="final" d="M-280 -167q0 188 297 455q215 173 363 230q302 142 453 142h31q73 0 85 -54l2 -12q0 -83 -168 -237l-21 -5h-10q-68 0 -81 83q5 20 38 62q-247 -42 -412 -152q-97 -53 -283 -223q-152 -166 -152 -294q0 -106 150 -201q134 -69 301 -69h48q231 0 529 92q135 50 232 112 q169 116 169 159q0 28 -152 104q-48 32 -48 73v3q0 72 83 80h3l123 -16l33 -3l140 3h7l34 2q55 0 76 -69v-14q0 -66 -81 -78h-31l-52 -3q26 -48 26 -87q0 -96 -204 -225q-131 -96 -346 -174q-302 -99 -601 -99q-463 0 -567 296q-14 52 -14 98v21zM214 -837q0 65 108 88 q151 24 560 48q35 0 52 -28l-26 -68q-9 -35 -590 -92h-8q-96 0 -96 52z" />
<glyph unicode="&#x64a;" horiz-adv-x="600" arabic-form="initial" d="M-134 -258q0 66 98 88l390 35q32 0 47 -28l-23 -68q-8 -34 -418 -79h-7q-87 0 -87 52zM-85 79.5q5 69.5 76 80.5q171 3 249 73t97.5 203t73.5 167q0 6 30 7q107 -21 69 -161q-39 -184 -102 -262.5t-172 -138t-242 -47.5q-84 9 -79 78.5z" />
<glyph unicode="&#x64a;" horiz-adv-x="378" arabic-form="medial" d="M-85.5 85q5.5 74 80.5 86q118 0 180.5 186t97.5 223t78 24q83 -42 24 -162q-40 -109 -49 -138.5t-7 -80t71 -59.5q63 5 80 -73v-18q-16 -73 -83 -73q-165 -1 -182 122q-44 -68 -91 -95t-116 -30q-89 14 -83.5 88zM-57 -501q0 65 71 88q99 24 369 48q23 0 34 -28l-17 -68 q-6 -35 -388 -92h-6q-63 0 -63 52z" />
<glyph unicode="&#xd;" horiz-adv-x="413" />
<glyph unicode=" "  horiz-adv-x="413" />
<glyph unicode="&#x09;" horiz-adv-x="413" />
<glyph unicode="&#xa0;" horiz-adv-x="413" />
<glyph unicode="!" horiz-adv-x="600" d="M175 1235.5q8 99.5 76 112t105 -155.5t39.5 -375.5t-9 -282t-68 -73t-73 189t-47.5 336.5t-23 248.5zM221 130q0 140 102 184l27 3q37 0 48 -54q0 -23 -28 -38l-3 -20v-3h17q68 -21 68 -93t-92 -105l-24 -3q-102 0 -115 129z" />
<glyph unicode="%" horiz-adv-x="1507" d="M276 -24q0 38 84 174q127 243 391 791q69 141 232 371q20 16 40 16q47 0 64 -101v-5q0 -47 -87 -170q-149 -251 -400 -833q-111 -219 -212 -349l-24 -5h-12q-59 0 -76 106v5zM289 1054v13q0 13 22 47q-13 22 -13 43q14 90 85 90q103 0 159 -120v-43q0 -75 -112 -99h-26 q-115 0 -115 69zM844 -3q0 44 73 103q0 57 60 68h25q101 0 142 -124v-34q0 -94 -107 -137l-35 -4h-4q-100 0 -154 120v8z" />
<glyph unicode="(" horiz-adv-x="1595" d="M670 540q32 298 254 632t296 293t52 -97q-24 -56 -220 -316q-196 -261 -205 -576v-45q1 -550 477 -776q58 -39 58 -97v-7q5 -83 -78 -87q-84 -4 -254 140t-290 392t-90 544z" />
<glyph unicode=")" horiz-adv-x="1730" d="M360 -473q-28 77 138 208q388 327 458 615t-30 490t-292 313t-234 182t29 122l18 6q96 35 337 -187t310 -417q184 -511 -296 -1120q-191 -198 -302 -265l-7 -3q-115 -23 -125 44z" />
<glyph unicode="*" horiz-adv-x="1008" d="M65 466v16q0 66 244 104v4l-48 36q-72 41 -72 80v8q16 60 60 60h12q42 0 172 -108v8l-28 144v4q11 52 70 52t78 -144q6 0 12 -60h4q108 120 152 120q60 -8 60 -52v-20q0 -26 -100 -108l-28 -32h76l136 4q38 0 56 -72q0 -76 -148 -76h-116l132 -112q28 -34 28 -68 q0 -42 -52 -48h-12q-68 0 -156 80v-4l4 -104v-4l4 -24q-17 -68 -60 -68h-20q-60 0 -60 124q-7 20 -12 132q-165 -152 -236 -152h-8q-40 8 -40 40v12q0 28 84 68q106 90 144 144h-36q-103 0 -232 -44q-64 15 -64 60z" />
<glyph unicode="+" horiz-adv-x="1104" d="M138 437v16q0 69 116 79q120 24 179 24v4q-28 146 -28 192q17 64 82 64t74 -112l24 -136l323 12q72 -20 72 -92q0 -63 -100 -63l-251 -8l-4 -12q60 -267 60 -319t-76 -68h-16q-72 0 -72 119q-52 256 -60 268q-60 0 -259 -36q-52 0 -64 68z" />
<glyph unicode="," horiz-adv-x="700" d="M290 152v20q14 76 72 76h12q74 0 124 -124l4 -28q0 -140 -116 -236l-40 -8q-20 6 -20 28q0 9 68 92l12 36h-4q-80 0 -112 144z" />
<glyph unicode="-" horiz-adv-x="970" d="M93 434v14q0 58 97 66q246 34 442 34h14q197 0 197 -24q18 -24 18 -45v-14q0 -58 -97 -58q-432 -11 -623 -35q-48 20 -48 62z" />
<glyph unicode="." horiz-adv-x="713" d="M175 109q0 58 76 68q73 0 124 -96v-20q0 -49 -88 -68h-20q-76 0 -92 116z" />
<glyph unicode="/" horiz-adv-x="830" d="M108 -123q15 178 206 541q272 643 311 705q34 27 60 24q83 -27 76 -98l-2 -30q-378 -983 -485 -1139q-71 -91 -102 -88l-22 2q-41 3 -42 83z" />
<glyph unicode="0" horiz-adv-x="757" d="M152 367v28q0 82 88 144l116 32h40q139 0 204 -148l8 -56q0 -123 -140 -176q-26 -12 -64 -12h-36q-117 0 -192 108q-24 39 -24 80zM308 399q0 -45 64 -56h16q20 0 48 16q0 43 -108 48l-16 12z" />
<glyph unicode="&#x660;" horiz-adv-x="757" d="M152 367v28q0 82 88 144l116 32h40q139 0 204 -148l8 -56q0 -123 -140 -176q-26 -12 -64 -12h-36q-117 0 -192 108q-24 39 -24 80zM308 399q0 -45 64 -56h16q20 0 48 16q0 43 -108 48l-16 12z" />
<glyph unicode="1" horiz-adv-x="478" d="M77 1016v11q0 61 71 76q68 0 124.5 -217t127.5 -653l4 -55v-27q0 -151 -71 -151h-8q-85 0 -93.5 141.5t-154.5 874.5z" />
<glyph unicode="&#x661;" horiz-adv-x="478" d="M77 1016v11q0 61 71 76q68 0 124.5 -217t127.5 -653l4 -55v-27q0 -151 -71 -151h-8q-85 0 -93.5 141.5t-154.5 874.5z" />
<glyph unicode="2" horiz-adv-x="929" d="M97 1020v10q15 80 75 80h35q27 0 93 -115.5t211 -123.5q146 8 270 230l25 5h25q43 0 55 -65q-70 -219 -220 -305q-83 -35 -140 -35l-51 5h-20q198 -409 226 -631q-19 -75 -75 -75h-25q-82 0 -96 135q-93 349 -200 546l-183 314z" />
<glyph unicode="&#x662;" horiz-adv-x="929" d="M97 1020v10q15 80 75 80h35q27 0 93 -115.5t211 -123.5q146 8 270 230l25 5h25q43 0 55 -65q-70 -219 -220 -305q-83 -35 -140 -35l-51 5h-20q198 -409 226 -631q-19 -75 -75 -75h-25q-82 0 -96 135q-93 349 -200 546l-183 314z" />
<glyph unicode="3" horiz-adv-x="1055" d="M71 1037v8q0 61 79 75q33 0 106.5 -105t165.5 -114q92 17 87.5 105t53.5 82h15q39 0 71 -107.5t91.5 -120.5t82.5 48t19 121.5t46 70.5t65.5 -55t-14.5 -187.5t-150.5 -132.5t-191.5 110h-4q-68 -141 -201 -92q83 -196 154 -539l23 -136q0 -56 -72 -68h-11q-65 0 -76 94 q-99 458 -171 608.5t-164 311.5z" />
<glyph unicode="&#x663;" horiz-adv-x="1055" d="M71 1037v8q0 61 79 75q33 0 106.5 -105t165.5 -114q92 17 87.5 105t53.5 82h15q39 0 71 -107.5t91.5 -120.5t82.5 48t19 121.5t46 70.5t65.5 -55t-14.5 -187.5t-150.5 -132.5t-191.5 110h-4q-68 -141 -201 -92q83 -196 154 -539l23 -136q0 -56 -72 -68h-11q-65 0 -76 94 q-99 458 -171 608.5t-164 311.5z" />
<glyph unicode="4" horiz-adv-x="1142" d="M189 825q1 113 121 217t236 104q46 0 84 -28t38 -76q0 -50 -64 -68q-69 -15 -137 -31q-87 -31 -124 -116l8 -11q198 -68 225 -81q146 -68 146 -150q0 -55 -75 -147l-118 -132q31 -20 253 -50t222 -93q0 -45 -41 -69t-90 -25q-191 0 -323 35q-211 57 -211 192q1 50 91 155 t99 122q-1 29 -109 65t-143 57q-88 50 -88 130z" />
<glyph unicode="&#x664;" horiz-adv-x="1142" d="M189 825q1 113 121 217t236 104q46 0 84 -28t38 -76q0 -50 -64 -68q-69 -15 -137 -31q-87 -31 -124 -116l8 -11q198 -68 225 -81q146 -68 146 -150q0 -55 -75 -147l-118 -132q31 -20 253 -50t222 -93q0 -45 -41 -69t-90 -25q-191 0 -323 35q-211 57 -211 192q1 50 91 155 t99 122q-1 29 -109 65t-143 57q-88 50 -88 130z" />
<glyph unicode="5" horiz-adv-x="1096" d="M72 197q0 224 282 423h5v5q-155 5 -155 70l-5 28q7 85 75 85h19q324 0 615 -277q94 -127 94 -226v-47q0 -190 -272 -239q-631 -19 -653 159zM222 178q114 -37 517 -18h9q108 11 108 80l5 18q0 116 -225 268q-62 38 -80 38q-115 -50 -224.5 -158t-109.5 -228z" />
<glyph unicode="&#x665;" horiz-adv-x="1096" d="M72 197q0 224 282 423h5v5q-155 5 -155 70l-5 28q7 85 75 85h19q324 0 615 -277q94 -127 94 -226v-47q0 -190 -272 -239q-631 -19 -653 159zM222 178q114 -37 517 -18h9q108 11 108 80l5 18q0 116 -225 268q-62 38 -80 38q-115 -50 -224.5 -158t-109.5 -228z" />
<glyph unicode="6" horiz-adv-x="1263" d="M60 915q3 84 129.5 81.5t349.5 -5.5l62 -2l62 2q48 -15 47 -69l-28 -198q-12 -385 463 -564q40 -2 56 -75q-15 -101 -92 -99h-4q-577 230 -562 732l13 112q-302 7 -396 9.5t-100 75.5z" />
<glyph unicode="&#x666;" horiz-adv-x="1263" d="M60 915q3 84 129.5 81.5t349.5 -5.5l62 -2l62 2q48 -15 47 -69l-28 -198q-12 -385 463 -564q40 -2 56 -75q-15 -101 -92 -99h-4q-577 230 -562 732l13 112q-302 7 -396 9.5t-100 75.5z" />
<glyph unicode="7" horiz-adv-x="1125" d="M64 924l5 16q13 43 84 39l10 -2q134 -94 314 -590q185 495 245 549t118 30t40 -84q-25 -90 -131 -275q-107 -185 -170 -388l-10 -31l-38 -160q-17 -56 -108 -43q-43 13 -89 249q-86 306 -186 474t-84 216z" />
<glyph unicode="&#x667;" horiz-adv-x="1125" d="M64 924l5 16q13 43 84 39l10 -2q134 -94 314 -590q185 495 245 549t118 30t40 -84q-25 -90 -131 -275q-107 -185 -170 -388l-10 -31l-38 -160q-17 -56 -108 -43q-43 13 -89 249q-86 306 -186 474t-84 216z" />
<glyph unicode="8" horiz-adv-x="1163" d="M152 144q34 116 146 372q112 255 180 469q30 49 85 45t207 -330t251 -609l-4 -48q-35 -71 -111 -46q-52 15 -72 82t-197 521l-88 188q-125 -353 -207 -583t-165 -200q-59 23 -25 139z" />
<glyph unicode="&#x668;" horiz-adv-x="1163" d="M152 144q34 116 146 372q112 255 180 469q30 49 85 45t207 -330t251 -609l-4 -48q-35 -71 -111 -46q-52 15 -72 82t-197 521l-88 188q-125 -353 -207 -583t-165 -200q-59 23 -25 139z" />
<glyph unicode="9" horiz-adv-x="984" d="M71 794q0 172 184 294q54 18 105 23q236 0 368 -340q82 0 82 -69v-18q0 -22 -32 -55q28 -254 174 -491l10 -60q0 -58 -83 -78q-100 0 -197 294l-74 294q-92 -19 -170 -19h-69q-212 0 -289 161zM236 817q0 -73 170 -73h23l129 9v5q-86 197 -185 197t-137 -129v-9z" />
<glyph unicode="&#x669;" horiz-adv-x="984" d="M71 794q0 172 184 294q54 18 105 23q236 0 368 -340q82 0 82 -69v-18q0 -22 -32 -55q28 -254 174 -491l10 -60q0 -58 -83 -78q-100 0 -197 294l-74 294q-92 -19 -170 -19h-69q-212 0 -289 161zM236 817q0 -73 170 -73h23l129 9v5q-86 197 -185 197t-137 -129v-9z" />
<glyph unicode=":" horiz-adv-x="448" d="M114 627q0 58 76 68q73 0 124 -96v-20q0 -49 -88 -68h-20q-76 0 -92 116zM119 222q0 58 76 68q73 0 124 -96v-20q0 -49 -88 -68h-20q-76 0 -92 116z" />
<glyph unicode="=" horiz-adv-x="991" d="M110 542l2 15q7 51 222 53.5t465 -10.5l4 4l4 -1q57 -8 70 -79l-3 -23q-7 -56 -128 -40q-294 22 -570 2q-73 28 -66 79zM118 293l1 18q5 69 111 62q430 12 513 2q110 -8 132 -86l-1 -3q-3 -47 -111 -58l-69 1l-110 8l-420 6q-48 16 -46 50z" />
<glyph unicode="[" horiz-adv-x="1317" d="M369 1325v16q0 64 120 64q241 28 456 28q372 -10 372 -52l4 -32q-8 -36 -60 -36q-67 -24 -720 -36v-4q56 -144 56 -272l-8 -504l4 -236v-120q0 -170 120 -228q92 -36 204 -36l272 4q200 0 200 -48l4 -20q0 -56 -92 -56q-212 -44 -368 -44h-28q-361 0 -452 260 q-12 64 -12 136v352l24 480v12q0 214 -92 352z" />
<glyph unicode="]" horiz-adv-x="1396" d="M-51 -205q0 52 136 52l72 4l224 -4h24q247 0 316 104q28 49 28 152v340l-4 548q15 161 52 252l-624 24q-152 13 -152 52v16q0 43 108 52q180 16 345 16t467 -40q32 -24 32 -56v-20l-52 -108q-44 -102 -44 -248v-44l36 -744q0 -306 -192 -404q-115 -60 -291 -60t-457 60 q-24 23 -24 56z" />
<glyph unicode="{" horiz-adv-x="1043" d="M492 758q0 42 60 56q65 -20 88 -20h8q33 0 44 48v24q0 52 -60 260q-12 72 -12 128q17 224 132 224h24q73 0 140 -60v-24q0 -33 -48 -44l-60 8h-4q-60 0 -60 -96q0 -65 80 -384l12 -80q0 -73 -116 -132h-16q100 -139 100 -264v-36q0 -38 -84 -240l-4 -32v-20 q0 -170 204 -267q48 -33 48 -60v-8q-7 -60 -60 -60q-162 41 -247 153t-85 204t72 270q16 58 16 104q0 149 -156 304q-16 16 -16 44z" />
<glyph unicode="}" horiz-adv-x="981" d="M32 -254q0 36 128 108q124 80 124 216v36q0 20 -80 216l-8 56v16q0 131 100 272q-76 0 -128 116v40q0 29 84 380l4 60v4q0 92 -64 92h-4l-56 -8q-48 11 -48 48v4q0 51 140 76h16q140 0 140 -258q0 -84 -68 -306l-4 -52v-12q0 -56 52 -56h4q25 0 84 20q60 -14 60 -56v-12 q0 -20 -76 -100q-96 -119 -96 -236q0 -83 76 -264l12 -100q0 -150 -160 -292q-121 -76 -180 -76q-52 11 -52 68z" />
<glyph unicode="&#xab;" horiz-adv-x="1666" d="M389 547v28q0 31 88 88q189 161 368 380q21 16 44 16h12q80 -15 80 -68v-8q0 -67 -380 -416q70 -65 241 -189.5t154 -188t-65 -63.5h-12q-31 0 -128 88q-378 284 -390 301zM714 547v28q0 31 88 88q189 161 368 380q21 16 44 16h12q80 -15 80 -68v-8q0 -67 -380 -416 q70 -65 241 -189.5t154 -188t-65 -63.5h-12q-31 0 -128 88q-378 284 -390 301z" />
<glyph unicode="&#xad;" horiz-adv-x="970" d="M93 434v14q0 58 97 66q246 34 442 34h14q197 0 197 -24q18 -24 18 -45v-14q0 -58 -97 -58q-432 -11 -623 -35q-48 20 -48 62z" />
<glyph unicode="&#xbb;" horiz-adv-x="1684" d="M408.5 993.5q16.5 63.5 64.5 63.5h12q31 0 129 -87q379 -282 391 -299l12 -32l1 -28q0 -31 -88 -89q-188 -162 -366 -381q-21 -17 -44 -17h-12q-80 15 -81 68v8q0 67 378 418q-70 64 -241.5 188t-155 187.5zM733.5 995.5q16.5 63.5 64.5 63.5h12q31 0 129 -87 q379 -282 391 -299l12 -32v-28q0 -31 -87 -89q-189 -162 -367 -382q-20 -16 -43 -16h-12q-81 15 -81 68v8q0 67 378 418q-70 64 -241.5 188t-155 187.5z" />
<glyph unicode="&#xd7;" horiz-adv-x="918" d="M134 257v6q0 40 111 122l129 126q-126 109 -182 159t-26 96t94 0t198 -172h2q162 172 192 172l8 3q56 -11 56 -56v-3q0 -31 -175 -189v-3q132 -114 209 -190t51 -116t-71 -12q-44 28 -124 106t-142 129q-190 -184 -222 -211q-32 -28 -68 -18q-34 10 -40 51z" />
<glyph unicode="&#xf7;" horiz-adv-x="974" d="M138 443l1 6q36 69 324 61.5t330 -14.5t42 -71l-2 -11q-9 -58 -128 -50q-181 24 -513 19l-16 3q-37 6 -38 57zM418 609v12q0 22 12 35l-3 3v19q13 63 63 63h9q78 0 88 -92v-6q-12 -94 -78 -94h-13q-78 8 -78 60zM435 187v19q0 19 38 59q9 29 34 29h10q72 0 81 -101 q-10 -78 -72 -78q-91 15 -91 72z" />
<glyph unicode="&#x43a;" horiz-adv-x="1291" d="M92 312v11q0 249 367 637l31 12h27q51 0 69 -62v-15q0 -41 -115 -159q-224 -265 -224 -401v-23q12 -107 77 -130q-21 61 -21 81v7q0 183 239 338q107 76 226 135q130 60 205 60h10q109 0 147 -126l5 -45q0 -170 -290 -402q-291 -204 -425 -216t-192 21q-76 31 -128 192z M470 263q0 -33 8 -68q52 9 156 69t220 175q112 122 112 192q-4 18 -41 20q-126 0 -369 -206q-54 -37 -83 -145l-3 -30v-7zM718 1090v2q0 52 63 86q310 225 1047 851q36 28 80 28t59 -48v-19q0 -44 -69 -94l-697 -582q-323 -290 -376 -290q-15 -7 -39 -7q-49 0 -65 50z" />
<glyph unicode="&#x60c;" horiz-adv-x="787" d="M242 114q6 98 54 169q46 71 76 72t44 -17t-16 -60q-30 -43 -44 -98q30 14 76 -23t20 -107t-120 -53q-96 19 -90 117z" />
<glyph unicode="&#x61b;" horiz-adv-x="900" d="M320.5 458.5q6.5 98.5 53 169.5t76.5 72t43.5 -16.5t-16 -60.5t-43.5 -98q30 14 76 -23t20.5 -107.5t-121 -52.5t-89 116.5zM331 123q0 58 76 68q73 0 124 -96v-20q0 -49 -88 -68h-20q-76 0 -92 116z" />
<glyph unicode="&#x61f;" horiz-adv-x="1074" d="M222 897q44 171 226 229q180 58 294 -3t115 -171t-39 -136t-84 0q-42 25 -22 114t-54 116q-74 28 -196 -40q-120 -68 -128 -172t146 -147t204 -127t32 -160q-18 -78 -52 -140t-71 -60q-39 0 -63 34t27 145t-55 152t-214 119q-110 78 -66 247zM484 44q-2 73 62 87 q46 15 98 -48l10 5q50 11 73 -49l2 -10q12 -52 -55 -90q-68 -38 -128 -3t-62 108z" />
<glyph unicode="&#x621;" horiz-adv-x="657" d="M121 -69q0 65 79 125l138 115q50 55 44.5 116t-111.5 178q-42 54 -43.5 105t30.5 87.5t87 67.5t96.5 20.5t55 -63.5t-32 -92.5t-37.5 -73.5t67.5 -122.5t51 -167.5t-82.5 -134q-215 -215 -258 -215l-13 -2h-21q-43 0 -50 56z" />
<glyph unicode="&#x622;" horiz-adv-x="591" d="M109 82v57q0 278 173 621q42 119 111 119q46 0 60 -53v-30q0 -38 -60 -157q-111 -249 -111 -528l2 -23q0 -59 -64 -84l-26 -4q-59 0 -83 66zM163 999q-79 361 365.5 468t516 74t56.5 -93q-34 -41 -247 -64.5t-387 -92t-166.5 -171.5t12.5 -147.5t-58 -76.5l-27 1 q-59 14 -65 102z" />
<glyph unicode="&#x623;" horiz-adv-x="596" d="M139 22q65 493 65 622q18 256 18 393q0 59 71 78h9q59 0 78 -64l1 -14q0 -77 -59 -689l-26 -340q-27 -60 -76 -60h-1q-80 9 -80 74zM174 1276q0 38 46 73l80 67q23 32 23 68t-62 103q-24 31 -24 69t25 52q26 12 44 12t50 -31t33 -35l1 -4q0 -18 -28 -22h-5q-7 -4 -7 -13 v-5q0 -23 47 -94q19 -32 19 -73t-43 -73q-125 -125 -150 -125l-8 -1h-12q-25 0 -29 32z" />
<glyph unicode="&#x624;" horiz-adv-x="474" d="M-251 -448q5 57 76 100q261 223 342 349q-131 57 -119 189t197 330q85 72 161 65q87 -8 114 -116q23 -218 -226 -578q-67 -95 -242 -255t-225 -174l-15 1q-37 3 -59 52q-9 17 -4 37zM87 854q0 38 46 73l80 67q23 32 23 68t-62 103q-24 31 -24 69t25 52q25 12 43 12 t52 -31q32 -31 32 -35l1 -4q0 -18 -28 -22h-5q-7 -4 -7 -13v-5q0 -23 47 -94q19 -32 19 -73t-43 -73q-125 -125 -150 -125l-8 -1h-12q-25 0 -29 32zM211 165l38 -21q26 18 84 166l19 80q-91 -89 -133 -196z" />
<glyph unicode="&#x625;" horiz-adv-x="596" d="M45 -590q0 38 46 73l80 67q23 32 23 68t-62 103q-24 31 -24 69t25 52q25 12 43 12t52 -31q32 -31 32 -35l1 -4q0 -18 -28 -22h-5q-7 -4 -7 -13v-5q0 -23 47 -94q19 -32 19 -73t-43 -73q-125 -125 -150 -125l-8 -1h-12q-25 0 -29 32zM139 22q65 493 65 622q18 256 18 393 q0 59 71 78h9q59 0 78 -64l1 -14q0 -77 -59 -689l-26 -340q-27 -60 -76 -60h-1q-80 9 -80 74z" />
<glyph unicode="&#x626;" horiz-adv-x="3201" d="M48 398v19q0 194 212 396q104 88 191 135q534 305 1142 305q301 0 370 -98q16 -25 16 -52v-10q0 -68 -94 -127l-23 -3h-8q-53 0 -73 64v19q0 8 15 29v3q-101 18 -214 18q-517 0 -998 -253q-121 -62 -246 -167q-158 -153 -158 -271v-12q0 -152 217 -287q92 -60 348 -126 q331 -80 707 -80t753 74q200 52 325 114q206 109 206 207q0 90 -251 260q-178 121 -178 219v3q0 122 281 180q304 84 449 84h36q79 0 96 -59l2 -19v-2q0 -65 -75 -79l-51 4q-183 0 -490 -100q-54 -28 -54 -41q6 -13 86 -66q306 -185 306 -365v-18q0 -218 -338 -356 q-94 -41 -312 -89q-351 -66 -697 -66h-46q-602 0 -1094 195q-358 161 -358 418zM2252 1358q0 38 46 73l80 67q23 32 23 68t-62 103q-24 31 -24 69t25 52q26 12 44 12t50 -31t33 -35l1 -4q0 -18 -28 -22h-5q-7 -4 -7 -13v-5q0 -23 47 -94q19 -32 19 -73t-43 -73 q-125 -125 -150 -125l-8 -1h-12q-25 0 -29 32z" />
<glyph unicode="&#x627;" horiz-adv-x="490" d="M143 22q65 493 65 622q18 256 18 393q0 59 71 78h9q59 0 78 -64l1 -14q0 -77 -59 -689l-26 -340q-27 -60 -76 -60h-1q-80 9 -80 74z" />
<glyph unicode="&#x628;" horiz-adv-x="1619" d="M31 299q0 183 268 349q113 58 235 91q192 45 326 45q51 0 75 -68v-28q0 -58 -78 -75h-53q-311 0 -523 -175q-93 -92 -93 -149q0 -134 366 -162l124 -2h2q471 0 773 313q86 102 86 374q0 65 53 89q17 7 36 7q83 -12 83 -81q0 -361 -167 -518q-166 -157 -392 -237t-484 -81 q-501 0 -614 210q-23 60 -23 98zM646 -494q0 59 76 68q73 0 124 -96v-20q0 -49 -88 -68h-20q-76 0 -92 116z" />
<glyph unicode="&#x62a;" horiz-adv-x="1628" d="M31 299q0 183 268 349q113 58 235 91q192 45 326 45q51 0 75 -68v-28q0 -58 -78 -75h-53q-311 0 -523 -175q-93 -92 -93 -149q0 -134 366 -162l124 -2h2q471 0 773 313q86 102 86 374q0 65 53 89q17 7 36 7q83 -12 83 -81q0 -361 -167 -518q-166 -157 -392 -237t-484 -81 q-501 0 -614 210q-23 60 -23 98zM828 1138q0 65 108 88q151 24 560 48q35 0 52 -28l-26 -68q-9 -35 -590 -92h-8q-96 0 -96 52z" />
<glyph unicode="&#x62b;" horiz-adv-x="1624" d="M31 299q0 183 268 349q113 58 235 91q192 45 326 45q51 0 75 -68v-28q0 -58 -78 -75h-53q-311 0 -523 -175q-93 -92 -93 -149q0 -134 366 -162l124 -2h2q471 0 773 313q86 102 86 374q0 65 53 89q17 7 36 7q83 -12 83 -81q0 -361 -167 -518q-166 -157 -392 -237t-484 -81 q-501 0 -614 210q-23 60 -23 98zM810 1104q0 65 108 88q151 24 560 48q35 0 52 -28l-26 -68q-9 -35 -590 -92h-8q-96 0 -96 52zM1089 1490q0 58 76 68q73 0 124 -96v-20q0 -49 -88 -68h-20q-76 0 -92 116z" />
<glyph unicode="&#x62c;" horiz-adv-x="1397" d="M-204 -431q0 378 534 767q191 148 334 231q24 9 24 28q-24 57 -156 116l-34 5h-7q-85 -15 -219 -197q-95 -186 -120 -205h-10q-10 0 -12 51v31q0 148 41 192q33 74 197 226q64 53 116 53q102 0 337 -180q31 -12 61 -12t109 36q34 7 65 7q147 0 258 -103q14 -18 14 -29v-5 q0 -68 -84 -99l-31 -4q-92 0 -296 45h-12q-87 0 -443 -245q-117 -77 -298 -253q-238 -255 -238 -444v-29q0 -266 216 -385q146 -96 402 -93h5q237 9 536 83q22 12 22 20l-9 16v20q8 33 29 33q97 -47 134 -115l2 -12q-3 -67 -265 -111t-423 -43h-19q-280 0 -505 109 q-33 12 -144 120q-77 96 -94 187q-17 68 -17 152v36zM642 -366q0 59 76 68q73 0 124 -96v-20q0 -49 -88 -68h-20q-76 0 -92 116z" />
<glyph unicode="&#x62d;" horiz-adv-x="1400" d="M-204 -431q0 378 534 767q191 148 334 231q24 9 24 28q-24 57 -156 116l-34 5h-7q-85 -15 -219 -197q-95 -186 -120 -205h-10q-10 0 -12 51v31q0 148 41 192q33 74 197 226q64 53 116 53q102 0 337 -180q31 -12 61 -12t109 36q34 7 65 7q147 0 258 -103q14 -18 14 -29v-5 q0 -68 -84 -99l-31 -4q-92 0 -296 45h-12q-87 0 -443 -245q-117 -77 -298 -253q-238 -255 -238 -444v-29q0 -266 216 -385q146 -96 402 -93h5q237 9 536 83q22 12 22 20l-9 16v20q8 33 29 33q97 -47 134 -115l2 -12q-3 -67 -265 -111t-423 -43h-19q-280 0 -505 109 q-33 12 -144 120q-77 96 -94 187q-17 68 -17 152v36z" />
<glyph unicode="&#x62e;" horiz-adv-x="1400" d="M-204 -431q0 378 534 767q191 148 334 231q24 9 24 28q-24 57 -156 116l-34 5h-7q-85 -15 -219 -197q-95 -186 -120 -205h-10q-10 0 -12 51v31q0 148 41 192q33 74 197 226q64 53 116 53q102 0 337 -180q31 -12 61 -12t109 36q34 7 65 7q147 0 258 -103q14 -18 14 -29v-5 q0 -68 -84 -99l-31 -4q-92 0 -296 45h-12q-87 0 -443 -245q-117 -77 -298 -253q-238 -255 -238 -444v-29q0 -266 216 -385q146 -96 402 -93h5q237 9 536 83q22 12 22 20l-9 16v20q8 33 29 33q97 -47 134 -115l2 -12q-3 -67 -265 -111t-423 -43h-19q-280 0 -505 109 q-33 12 -144 120q-77 96 -94 187q-17 68 -17 152v36zM403 1510q0 58 76 68q73 0 124 -96v-20q0 -49 -88 -68h-20q-76 0 -92 116z" />
<glyph unicode="&#x62f;" horiz-adv-x="701" d="M-212 -181q0 60 99 73q153 50 270 110t241 174q46 53 46 117v2q0 114 -149 359l-4 27q12 76 75 76h5q59 0 100 -103q103 -180 103 -348t-126 -271q-114 -101 -281 -186q-253 -119 -303 -119q-76 14 -76 69v20z" />
<glyph unicode="&#x630;" horiz-adv-x="696" d="M-213 -238q0 60 99 73q153 49 270 110t241 175q46 53 46 117v2q0 114 -149 359l-4 27q12 76 75 76h5q59 0 100 -103q103 -180 103 -348t-126 -271q-114 -102 -281 -187q-253 -119 -303 -119q-76 14 -76 69v20zM266 1257q0 58 76 68q73 0 124 -96v-20q0 -49 -88 -68h-20 q-76 0 -92 116z" />
<glyph unicode="&#x631;" horiz-adv-x="553" d="M-388 -578q0 36 44 73q0 3 169 168q178 179 224 239q225 265 441 646q24 31 66 31t67 -45q7 -14 7 -31v-3q0 -26 -30 -69q-55 -93 -119 -188q-41 -72 -131 -178q-218 -286 -560 -653q-60 -64 -72 -64q-12 -6 -31 -6q-46 0 -70 50q-5 13 -5 24v6z" />
<glyph unicode="&#x632;" horiz-adv-x="540" d="M-388 -578q0 36 44 73q0 3 169 168q178 179 224 239q225 265 441 646q24 31 66 31t67 -45q7 -14 7 -31v-3q0 -26 -30 -69q-55 -93 -119 -188q-41 -72 -131 -178q-218 -286 -560 -653q-60 -64 -72 -64q-12 -6 -31 -6q-46 0 -70 50q-5 13 -5 24v6zM518 1331q0 58 76 68 q73 0 124 -96v-20q0 -49 -88 -68h-20q-76 0 -92 116z" />
<glyph unicode="&#x633;" horiz-adv-x="3104" d="M26 568q0 250 189 477q120 127 169 151q144 102 322 157t384 85q147 16 189 16q101 -16 101 -94v-12q0 -57 -68 -106l-33 -8q-46 0 -70 43q-199 -18 -366 -61q-171 -48 -273 -104t-193 -145q-180 -189 -180 -394v-5q0 -237 177 -411q268 -216 673 -216q458 0 860 279 q132 99 172 227l2 18q-20 100 -20 134v20q0 79 37 96t51 17q99 0 99 -196v-13l-3 -30l111 -8q249 0 560 83q88 -13 88 -85q0 -85 -146 -104q-266 -63 -492 -63q-99 0 -169 18q-149 -286 -608 -471q-230 -78 -441 -78h-68q-398 0 -749 244q-114 89 -181 184 q-124 179 -124 355z" />
<glyph unicode="&#x634;" horiz-adv-x="3104" d="M26 568q0 250 189 477q120 127 169 151q144 102 322 157t384 85q147 16 189 16q101 -16 101 -94v-12q0 -57 -68 -106l-33 -8q-46 0 -70 43q-199 -18 -366 -61q-171 -48 -273 -104t-193 -145q-180 -189 -180 -394v-5q0 -237 177 -411q268 -216 673 -216q458 0 860 279 q132 99 172 227l2 18q-20 100 -20 134v20q0 79 37 96t51 17q99 0 99 -196v-13l-3 -30l111 -8q249 0 560 83q88 -13 88 -85q0 -85 -146 -104q-266 -63 -492 -63q-99 0 -169 18q-149 -286 -608 -471q-230 -78 -441 -78h-68q-398 0 -749 244q-114 89 -181 184 q-124 179 -124 355zM2229 1176q0 65 108 88q151 24 560 48q35 0 52 -28l-26 -68q-9 -35 -590 -92h-8q-96 0 -96 52zM2508 1684q0 58 76 68q73 0 124 -96v-20q0 -49 -88 -68h-20q-76 0 -92 116z" />
<glyph unicode="&#x635;" horiz-adv-x="2916" d="M-3 267q0 397 708 664q258 82 520 82h58q73 0 86 -65v-17q-16 -69 -62 -69h-92q-503 0 -924 -328q-143 -130 -143 -277q0 -233 318 -390q162 -58 352 -58h75q366 0 770 260q189 129 270 349l14 44q-21 57 -21 127q8 167 52 167q0 11 48 17q92 -16 92 -119l3 -35l-13 -136 q17 -35 48 -35q31 69 232 267q239 202 421 202q138 0 175 -137l3 -34v-24q0 -171 -311 -359q-178 -93 -377 -93h-3q-48 0 -92 18q-87 -147 -93 -148h-3q-48 17 -48 86v7q0 36 24 85l-28 14q-105 -289 -431 -472q-323 -177 -691 -177q-650 0 -875 351q-62 107 -62 233z M2282 414h17q258 0 445 181q96 91 96 131t-27 41h-11q-146 0 -479 -298l-41 -51v-4z" />
<glyph unicode="&#x636;" horiz-adv-x="2902" d="M0 267q0 397 708 664q258 82 520 82h58q73 0 86 -65v-17q-16 -69 -62 -69h-92q-503 0 -924 -328q-143 -130 -143 -277q0 -233 318 -390q162 -58 352 -58h75q366 0 770 260q189 129 270 349l14 44q-21 57 -21 127q8 167 52 167q0 11 48 17q92 -16 92 -119l3 -35l-13 -136 q17 -35 48 -35q31 69 232 267q239 202 421 202q138 0 175 -137l3 -34v-24q0 -171 -311 -359q-178 -93 -377 -93h-3q-48 0 -92 18q-87 -147 -93 -148h-3q-48 17 -48 86v7q0 36 24 85l-28 14q-105 -289 -431 -472q-323 -177 -691 -177q-650 0 -875 351q-62 107 -62 233z M2285 414h17q258 0 445 181q96 91 96 131t-27 41h-11q-146 0 -479 -298l-41 -51v-4zM2319 1318q0 58 76 68q73 0 124 -96v-20q0 -49 -88 -68h-20q-76 0 -92 116z" />
<glyph unicode="&#x637;" horiz-adv-x="1053" d="M71 76q12 81 77 81l99 3v22q0 38 164 228q149 157 202 197l-7 31q0 166 73 636q50 275 78 373q30 36 78 36t70 -62v-24q-100 -468 -128 -814l-5 -57h2q94 57 162 57q101 0 140 -112l5 -40q18 -347 -213.5 -495.5t-594.5 -135.5q-163 -2 -163 10q-39 28 -39 66zM432 182h3 q156 -28 317 71t179 242.5t-57 114.5t-246 -193q-158 -173 -196 -235z" />
<glyph unicode="&#x638;" horiz-adv-x="1080" d="M93 76q12 81 77 81l99 3v22q0 38 164 228q149 157 202 197l-7 31q0 166 73 636q50 275 78 373q30 36 78 36t70 -62v-24q-100 -468 -128 -814l-5 -57h2q94 57 162 57q101 0 140 -112l5 -40q18 -347 -213.5 -495.5t-594.5 -135.5q-163 -2 -163 10q-39 28 -39 66zM454 182h3 q156 -28 317 71t179 242.5t-57 114.5t-246 -193q-158 -173 -196 -235zM960 1431q0 58 76 68q73 0 124 -96v-20q0 -49 -88 -68h-20q-76 0 -92 116z" />
<glyph unicode="&#x639;" horiz-adv-x="1201" d="M-252 -457q0 333 440 654q140 92 246 140l134 53q-13 26 -13 47q0 151 270 340q105 65 166 72h12q62 -15 62 -61v-20q0 -50 -89 -72q-69 -27 -191 -136q-85 -86 -85 -121v-2l6 -2q257 85 338 85q60 0 70 -77q0 -89 -257 -146q-41 -9 -87 -9h-43l-2 2q-307 -85 -567 -290 q-137 -125 -178 -185q-104 -150 -104 -253v-27q0 -110 101.5 -221t336.5 -170t471.5 -22.5t341 79.5t171.5 43t67 -81q0 -65 -112 -91t-350.5 -68.5t-598 0t-515.5 348.5q-41 96 -41 191z" />
<glyph unicode="&#x63a;" horiz-adv-x="1201" d="M-252 -457q0 333 440 654q140 92 246 140l134 53q-13 26 -13 47q0 151 270 340q105 65 166 72h12q62 -15 62 -61v-20q0 -50 -89 -72q-69 -27 -191 -136q-85 -86 -85 -121v-2l6 -2q257 85 338 85q60 0 70 -77q0 -89 -257 -146q-41 -9 -87 -9h-43l-2 2q-307 -85 -567 -290 q-137 -125 -178 -185q-104 -150 -104 -253v-27q0 -110 101.5 -221t336.5 -170t471.5 -22.5t341 79.5t171.5 43t67 -81q0 -65 -112 -91t-350.5 -68.5t-598 0t-515.5 348.5q-41 96 -41 191zM707 1391q0 58 76 68q73 0 124 -96v-20q0 -49 -88 -68h-20q-76 0 -92 116z" />
<glyph unicode="&#x640;" horiz-adv-x="590" d="M-30 0v182h652v-182h-652z" />
<glyph unicode="&#x641;" horiz-adv-x="2470" d="M71 439q0 291 411 525q128 74 317 140t208 66h5q85 -12 85 -82v-15q0 -66 -117 -89q-415 -138 -572 -265q-171 -117 -171 -270v-25q0 -287 461 -414q119 -31 262 -31q420 0 934 254q-15 64 -15 104q0 222 181 365q75 52 134 52h7q121 0 159 -139l5 -52v-5 q0 -137 -122 -292q-120 -115 -210 -154q-130 -75 -275 -131q-392 -138 -733 -138q-425 0 -743 222q-211 164 -211 374zM1675 1400q0 58 76 68q73 0 124 -96v-20q0 -49 -88 -68h-20q-76 0 -92 116zM2050 363q0 -28 8 -28q100 84 119 163q14 26 14 60v5l-2 12 q-85 -40 -131 -158q-8 -26 -8 -54z" />
<glyph unicode="&#x642;" horiz-adv-x="2696" d="M62 291v28q0 112 61 263q37 88 149 210q146 134 246 184q172 105 429 195q345 123 761 123q361 -8 361 -22q45 -26 45 -78t-62 -75l-14 -2q-230 13 -337 13q-484 0 -902 -193q-167 -72 -324 -181q-185 -135 -240 -307q-19 -77 -19 -148q0 -201 248 -387 q269 -178 616 -178h22q383 0 804 197q104 53 206 129q96 82 141 144l47 67v2h-2q-140 0 -195 132q-15 40 -15 85v13q0 173 154 264q57 25 103 25h9q126 0 188 -136q18 -51 18 -112q0 -136 -102 -331q-47 -90 -167 -214q-114 -105 -212 -159q-104 -64 -293 -131 q-310 -100 -623 -100q-499 0 -857 266q-244 204 -244 414zM1980 1671q0 65 108 88q151 24 560 48q35 0 52 -28l-26 -68q-9 -35 -590 -92h-8q-96 0 -96 52zM2252 492q0 -42 32 -56t57 -14h4q47 0 59 122l2 15q-8 71 -62 71t-85 -78q-7 -24 -7 -50v-10z" />
<glyph unicode="&#x644;" horiz-adv-x="2198" d="M31 -4q0 175 193 367q188 165 379 223t331 58t164 -96l3 -28q-14 -104 -96 -104q-54 0 -66 56h-5q-150 0 -378 -86q-380 -191 -380 -426q0 -174 263 -261q109 -33 266 -33h3q837 0 1166 646q87 145 87 670v200l-3 23q0 56 66 81l23 2q62 0 83 -73v-5l3 -206 q0 -631 -119 -791q-52 -104 -236 -298q-406 -396 -961 -396h-68q-347 0 -563 160q-155 131 -155 286v31z" />
<glyph unicode="&#x645;" horiz-adv-x="1500" d="M74 12q0 329 480 563q349 153 603 153q168 0 269 -150q54 -90 54 -198q0 -187 -207 -325q-98 -52 -165 -52h-28q-108 0 -198 101q-68 86 -68 209v5q0 102 119 250v2q-264 -76 -478 -226q-228 -177 -228 -351q0 -254 231 -497q19 -21 19 -47v-15q0 -59 -64 -79l-16 -1 q-45 0 -85 59q-168 204 -219 438q-19 98 -19 161zM971 300q0 -118 112 -160l33 -5q74 0 170 102q61 81 61 155t-98 153q-39 19 -55 19q-61 0 -174 -130q-49 -72 -49 -122v-12z" />
<glyph unicode="&#x646;" horiz-adv-x="2442" d="M18 71q0 267 337 514q485 304 861 354q74 -13 74 -70v-22q0 -63 -152 -81q-55 0 -351 -114q-250 -121 -439 -269q-174 -171 -174 -317t177 -285q254 -156 603 -156h39q594 0 1056 382q154 151 184 277q14 68 14 198t-42 433v3q21 64 63 64h22q65 0 74 -99 q39 -243 39 -422q0 -247 -85 -358q-161 -230 -386 -354q-424 -258 -890 -258t-840 248q-184 151 -184 332zM1469 344q0 58 76 68q73 0 124 -96v-20q0 -49 -88 -68h-20q-76 0 -92 116z" />
<glyph unicode="&#x647;" horiz-adv-x="997" d="M53 195q0 94 102 174q134 113 301 171q89 30 108 31h9q30 14 44 14q40 0 142 -77q79 -71 94 -98q44 -65 44 -149q0 -116 -90 -178q-130 -79 -349 -79h-40q-206 0 -255 30q-29 11 -65 46q-45 52 -45 115zM198 193q0 -19 42 -33q18 -8 182 -11h19q203 0 294 60q17 20 17 49 v7q0 49 -41 90t-67 58l-40 24q-10 -8 -60 -20q-100 -32 -168 -69t-147 -106q-31 -29 -31 -48v-1z" />
<glyph unicode="&#x648;" horiz-adv-x="479" d="M-251 -448q5 57 76 100q261 223 342 349q-131 57 -119 189t197 330q85 72 161 65q87 -8 114 -116q23 -218 -226 -578q-67 -95 -242 -255t-225 -174l-15 1q-37 3 -59 52q-9 17 -4 37zM211 165l38 -21q26 18 84 166l19 80q-91 -89 -133 -196z" />
<glyph unicode="&#x649;" horiz-adv-x="3204" d="M46 398v19q0 194 212 396q104 88 191 135q534 305 1142 305q301 0 370 -98q16 -25 16 -52v-10q0 -68 -94 -127l-23 -3h-8q-53 0 -73 64v19q0 8 15 29v3q-101 18 -214 18q-517 0 -998 -253q-121 -62 -246 -167q-158 -153 -158 -271v-12q0 -152 217 -287q92 -60 348 -126 q331 -80 707 -80t753 74q200 52 325 114q206 109 206 207q0 90 -251 260q-178 121 -178 219v3q0 122 281 180q304 84 449 84h36q79 0 96 -59l2 -19v-2q0 -65 -75 -79l-51 4q-183 0 -490 -100q-54 -28 -54 -41q6 -13 86 -66q306 -185 306 -365v-18q0 -218 -338 -356 q-94 -41 -312 -89q-351 -66 -697 -66h-46q-602 0 -1094 195q-358 161 -358 418z" />
<glyph unicode="&#x64b;" d="M72 1293v84l343 182v-87zM72 1481v84l343 182v-87z" />
<glyph unicode="&#x64c;" d="M26 1506q4 10 48 28q42 18 61 18q55 0 55 -73q0 -34 -20 -65q67 24 109 71q-58 55 -58 111t54 117.5t103 61.5q77 -1 77 -95t-57 -151q18 -9 59 -14l-8 -93q-28 4 -89 23q-92 -100 -300 -160l-32 57q29 12 83 54q18 23 18 52t-28 29q-11 0 -32 -10t-27 -10t-13 19.5 t-3 29.5zM292 1616q0 -18 14 -40t36 -22t36 26q15 26 15 55q0 54 -42 54q-19 0 -39 -27.5t-20 -45.5z" />
<glyph unicode="&#x64d;" d="M251 -1050l343 182v-87l-343 -179v84zM251 -1238l343 182v-87l-343 -180v85z" />
<glyph unicode="&#x64e;" d="M72 1293v84l343 182v-87z" />
<glyph unicode="&#x64f;" d="M13 1338q88 35 205 152q-60 60 -60 122t58.5 129t114.5 67q101 0 101 -94t-78 -178q28 -16 75 -16l-12 -113q-46 9 -126 36q-106 -114 -231 -158zM239 1644q0 -23 15.5 -47t35.5 -24q20 1 40 37q18 36 18 58q0 63 -47 63q-21 0 -41.5 -32t-20.5 -55z" />
<glyph unicode="&#x650;" d="M259 -1032l343 182v-87l-343 -180v85z" />
<glyph unicode="&#x651;" d="M45 1419q0 47 15 92l60 27q-2 -22 -2 -41q0 -77 33 -77q74 0 70 153l55 23q10 -103 54 -103q53 0 53 144l60 30q5 -38 5 -82q0 -211 -99 -211q-53 0 -95 30q-57 -115 -118 -115q-41 -1 -66 41t-25 89z" />
<glyph unicode="&#x652;" d="M82 1435q0 79 46 152t126 73t120 -57t39 -148t-47 -129t-146 -38q-138 0 -138 147zM144 1453q0 -66 99 -66t99 72q0 100 -96 100q-28 0 -65 -28t-37 -78z" />
<glyph unicode="&#x67e;" horiz-adv-x="1624" d="M31 299q0 183 268 349q113 58 235 91q192 45 326 45q51 0 75 -68v-28q0 -58 -78 -75h-53q-311 0 -523 -175q-93 -92 -93 -149q0 -134 366 -162l124 -2h2q471 0 773 313q86 102 86 374q0 65 53 89q17 7 36 7q83 -12 83 -81q0 -361 -167 -518q-166 -157 -392 -237t-484 -81 q-501 0 -614 210q-23 60 -23 98zM406 -354q0 66 108 88q151 24 560 48q35 0 52 -28l-26 -68q-9 -34 -590 -92h-8q-96 0 -96 52zM655 -586q0 59 76 68q73 0 124 -96v-20q0 -49 -88 -68h-20q-76 0 -92 116z" />
<glyph unicode="&#x686;" horiz-adv-x="1400" d="M-204 -431q0 378 534 767q191 148 334 231q24 9 24 28q-24 57 -156 116l-34 5h-7q-85 -15 -219 -197q-95 -186 -120 -205h-10q-10 0 -12 51v31q0 148 41 192q33 74 197 226q64 53 116 53q102 0 337 -180q31 -12 61 -12t109 36q34 7 65 7q147 0 258 -103q14 -18 14 -29v-5 q0 -68 -84 -99l-31 -4q-92 0 -296 45h-12q-87 0 -443 -245q-117 -77 -298 -253q-238 -255 -238 -444v-29q0 -266 216 -385q146 -96 402 -93h5q237 9 536 83q22 12 22 20l-9 16v20q8 33 29 33q97 -47 134 -115l2 -12q-3 -67 -265 -111t-423 -43h-19q-280 0 -505 109 q-33 12 -144 120q-77 96 -94 187q-17 68 -17 152v36zM400 -136q0 65 108 88q151 24 560 48q34 0 52 -28l-26 -68q-9 -35 -590 -92h-8q-96 0 -96 52zM649 -368q0 58 76 68q72 0 124 -96v-20q0 -49 -88 -68h-20q-77 0 -92 116z" />
<glyph unicode="&#x698;" horiz-adv-x="536" d="M-392 -578q0 36 44 73q0 3 169 168q178 179 224 239q225 265 441 646q24 31 66 31t67 -45q7 -14 7 -31v-3q0 -26 -30 -69q-55 -93 -119 -188q-41 -72 -131 -178q-218 -286 -560 -653q-60 -64 -72 -64q-12 -6 -31 -6q-46 0 -70 50q-5 13 -5 24v6zM245 1302q0 65 108 88 q151 24 560 48q35 0 52 -28l-26 -68q-9 -35 -590 -92h-8q-96 0 -96 52zM524 1688q0 58 76 68q73 0 124 -96v-20q0 -49 -88 -68h-20q-76 0 -92 116z" />
<glyph unicode="&#x6af;" horiz-adv-x="1801" d="M32 436q0 327 552 562l112 35h14q70 -13 70 -69v-11q0 -65 -119 -91q-475 -194 -475 -440q0 -200 419 -284q73 -14 154 -14q293 0 675 214q106 63 252 213q115 134 115 311l-7 102q22 62 63 62h21q62 0 70 -80l3 -56v-52q0 -397 -520 -675q-340 -154 -633 -154h-35 q-389 0 -626 192q-105 111 -105 235zM1823 1506v17q0 37 56 70q37 107 239 309t279 202h21q57 0 101 -91l3 -28v-11q0 -65 -195 -227q-93 -66 -147 -66h-7q-29 0 -77 35h-4q-97 -94 -105 -112h4q115 0 441 127.5t605 383.5l42 14q56 0 77 -63v-21q0 -39 -101 -133 q-586 -394 -1005 -448q-15 -7 -160 -28q-52 0 -67 70z" />
<glyph unicode="&#x2000;" horiz-adv-x="1066" />
<glyph unicode="&#x2001;" horiz-adv-x="2133" />
<glyph unicode="&#x2002;" horiz-adv-x="1066" />
<glyph unicode="&#x2003;" horiz-adv-x="2133" />
<glyph unicode="&#x2004;" horiz-adv-x="711" />
<glyph unicode="&#x2005;" horiz-adv-x="533" />
<glyph unicode="&#x2006;" horiz-adv-x="355" />
<glyph unicode="&#x2007;" horiz-adv-x="355" />
<glyph unicode="&#x2008;" horiz-adv-x="266" />
<glyph unicode="&#x2009;" horiz-adv-x="426" />
<glyph unicode="&#x200a;" horiz-adv-x="118" />
<glyph unicode="&#x200e;" horiz-adv-x="32" d="M0 0v1160h154l-59 59l25 22l95 -97l-95 -98l-25 20l63 63h-126v-1129h-32z" />
<glyph unicode="&#x200f;" horiz-adv-x="32" d="M-185 1144l100 97l20 -22l-59 -59h156v-1160h-32v1129h-126l61 -63l-20 -20z" />
<glyph unicode="&#x2010;" horiz-adv-x="970" d="M93 434v14q0 58 97 66q246 34 442 34h14q197 0 197 -24q18 -24 18 -45v-14q0 -58 -97 -58q-432 -11 -623 -35q-48 20 -48 62z" />
<glyph unicode="&#x2011;" horiz-adv-x="970" d="M93 434v14q0 58 97 66q246 34 442 34h14q197 0 197 -24q18 -24 18 -45v-14q0 -58 -97 -58q-432 -11 -623 -35q-48 20 -48 62z" />
<glyph unicode="&#x2012;" horiz-adv-x="970" d="M93 434v14q0 58 97 66q246 34 442 34h14q197 0 197 -24q18 -24 18 -45v-14q0 -58 -97 -58q-432 -11 -623 -35q-48 20 -48 62z" />
<glyph unicode="&#x2013;" horiz-adv-x="1226" d="M93 434v14q0 58 129 66q328 34 590 34h18q263 0 263 -24q24 -24 24 -45v-14q0 -58 -129 -58q-576 -11 -831 -35q-64 20 -64 62z" />
<glyph unicode="&#x2014;" horiz-adv-x="2250" d="M93 434v14q0 58 259 66q656 34 1178 34h38q525 0 525 -24q48 -24 48 -45v-14q0 -58 -259 -58q-1152 -11 -1661 -35q-128 20 -128 62z" />
<glyph unicode="&#x2018;" horiz-adv-x="688" d="M235 1314q6 98 52 170t76 72q29 2 43 -16t-15 -61t-43 -98q30 13 76 -23t21 -107t-121 -53t-89 116z" />
<glyph unicode="&#x2019;" horiz-adv-x="738" d="M254 1500q26 70 122 52t88 -116q-6 -98 -52 -170q-46 -71 -77 -72q-29 -2 -43 16t16 61t43 98q-30 -14 -76 23q-47 38 -21 108z" />
<glyph unicode="&#x201c;" horiz-adv-x="1040" d="M261 1314q6 98 52 170t76 72q29 2 43 -16t-15 -61t-43 -98q30 13 76 -23t21 -107t-121 -53t-89 116zM507 1314q6 98 52 170t76 72q29 2 43 -16t-15 -61t-43 -98q30 13 76 -23t21 -107t-121 -53t-89 116z" />
<glyph unicode="&#x201d;" horiz-adv-x="1028" d="M281 1502q25 70 121 52t88 -118q-8 -98 -54 -168t-76 -72t-44 16t16 61t45 98q-30 -15 -76 23t-20 108zM527 1500q26 70 121 52t88 -118q-7 -98 -54 -169t-77 -71t-43 16q-14 18 16 60t44 98q-30 -14 -76 24t-19 108z" />
<glyph unicode="&#x202f;" horiz-adv-x="426" />
<glyph unicode="&#x2039;" horiz-adv-x="872" d="M129 547v28q0 31 88 88q189 161 368 380q21 16 44 16h12q80 -15 80 -68v-8q0 -67 -380 -416q70 -65 241 -189.5t154 -188t-65 -63.5h-12q-31 0 -128 88q-378 284 -390 301z" />
<glyph unicode="&#x203a;" horiz-adv-x="748" d="M98 159v8q0 40 143.5 186t221.5 234q-172 184 -263.5 271.5t-94.5 141.5t62.5 56.5t232.5 -179.5t193.5 -214.5t22.5 -89.5t-42.5 -92t-209 -214.5t-202.5 -179.5q-51 0 -64 72z" />
<glyph unicode="&#x205f;" horiz-adv-x="533" />
<glyph unicode="&#x25fc;" horiz-adv-x="500" d="M0 0z" />
</font>
</defs>
</svg>
